<?xml version="1.0" encoding="UTF-8"?>
<svg version="1.1" xmlns="http://www.w3.org/2000/svg" width="288" height="258">
<path d="M0 0 C95.04 0 190.08 0 288 0 C288 85.14 288 170.28 288 258 C192.96 258 97.92 258 0 258 C0 172.86 0 87.72 0 0 Z " fill="#B8B8B8" transform="translate(0,0)"/>
<path d="M0 0 C6.56008573 3.78466484 9.95308654 7.71228224 12 15 C13.2187455 29.12310961 10.43167903 41.59446086 1.734375 52.9609375 C-6.02817492 61.87078253 -15.07799032 68.44216135 -26 73 C-26.66 73 -27.32 73 -28 73 C-28.03020924 68.68751447 -28.04870281 64.37506873 -28.0625 60.0625 C-28.06725342 58.7633667 -28.07200684 57.4642334 -28.0769043 56.12573242 C-28.08978111 46.2618671 -27.76673212 36.43986235 -27.09204102 26.59594727 C-27.00974243 25.13499634 -27.00974243 25.13499634 -26.92578125 23.64453125 C-26.86817627 22.79221924 -26.81057129 21.93990723 -26.7512207 21.06176758 C-26.83331787 20.38138428 -26.91541504 19.70100098 -27 19 C-27.99 18.34 -28.98 17.68 -30 17 C-29.34 16.34 -28.68 15.68 -28 15 C-29.98 14.67 -31.96 14.34 -34 14 C-34 13.01 -34 12.02 -34 11 C-34.66 11 -35.32 11 -36 11 C-33.20900633 4.77393719 -28.27330432 1.32565704 -22.125 -1.375 C-14.22855303 -4.23447095 -7.49223929 -3.70652007 0 0 Z " fill="#BABCBD" transform="translate(96,76)"/>
<path d="M0 0 C6.60514303 3.47696473 10.60833889 7.76503138 13.484375 14.7265625 C17.04883348 28.9370806 14.64295048 43.20474192 7.3671875 55.74609375 C-1.75163971 69.20073859 -13.87676448 78.78188014 -29.6328125 83.24609375 C-29.6328125 86.21609375 -29.6328125 89.18609375 -29.6328125 92.24609375 C-29.3028125 90.59609375 -28.9728125 88.94609375 -28.6328125 87.24609375 C-27.1478125 87.74109375 -27.1478125 87.74109375 -25.6328125 88.24609375 C-25.58342135 92.33948027 -25.54709749 96.43275173 -25.52294922 100.52636719 C-25.51288373 101.91930156 -25.49923016 103.31221477 -25.48193359 104.70507812 C-25.4577103 106.70563735 -25.44740436 108.7063499 -25.4375 110.70703125 C-25.42702637 111.91149902 -25.41655273 113.1159668 -25.40576172 114.35693359 C-25.6328125 117.24609375 -25.6328125 117.24609375 -27.6328125 119.24609375 C-29.7578125 118.87109375 -29.7578125 118.87109375 -31.6328125 118.24609375 C-32.04853516 116.56580078 -32.04853516 116.56580078 -32.47265625 114.8515625 C-32.83847917 113.37889073 -33.20436803 111.90623533 -33.5703125 110.43359375 C-33.84391602 109.32661133 -33.84391602 109.32661133 -34.12304688 108.19726562 C-34.875074 105.17548391 -35.64766823 102.20152657 -36.6328125 99.24609375 C-36.86078812 96.51320082 -37.04949437 93.79567171 -37.1953125 91.05859375 C-37.23849609 90.30900391 -37.28167969 89.55941406 -37.32617188 88.78710938 C-37.43203935 86.94031 -37.5329101 85.09322541 -37.6328125 83.24609375 C-39.6128125 83.24609375 -41.5928125 83.24609375 -43.6328125 83.24609375 C-43.6328125 81.92609375 -43.6328125 80.60609375 -43.6328125 79.24609375 C-41.1578125 78.25609375 -41.1578125 78.25609375 -38.6328125 77.24609375 C-38.65601563 76.14136719 -38.67921875 75.03664063 -38.703125 73.8984375 C-38.9432913 57.07762997 -38.84262093 39.39649988 -33.6328125 23.24609375 C-32.3128125 23.24609375 -30.9928125 23.24609375 -29.6328125 23.24609375 C-29.65786865 23.85155029 -29.6829248 24.45700684 -29.70874023 25.08081055 C-30.42470909 42.46700217 -31.04992299 59.85499489 -31.6328125 77.24609375 C-15.14922759 68.98232318 -1.34259945 59.9916881 5.46875 41.98046875 C6.56335679 38.64905678 7.18234734 35.75805681 7.3671875 32.24609375 C7.4290625 31.25738281 7.4909375 30.26867187 7.5546875 29.25 C7.81920305 22.09981407 7.40455667 16.30872302 3.3671875 10.24609375 C-1.82763159 5.05127466 -8.44433644 2.18997022 -15.7578125 1.93359375 C-24.44031386 2.09016345 -31.40085527 5.94705328 -37.59375 11.85546875 C-48.3063752 24.4150983 -49.12719246 40.55443742 -49.6328125 56.24609375 C-50.2928125 56.24609375 -50.9528125 56.24609375 -51.6328125 56.24609375 C-55.58356589 48.34458698 -53.42536762 33.37173703 -51.0703125 25.05859375 C-46.64787609 13.16161692 -39.90099637 4.4452129 -28.4296875 -0.9921875 C-19.67714571 -4.70250413 -8.59636635 -3.68597904 0 0 Z " fill="#1E1F22" transform="translate(99.6328125,71.75390625)"/>
<path d="M0 0 C0.66 0 1.32 0 2 0 C-1.57528302 31.16366092 -17.43598893 56.80878742 -41 77 C-41.66 76.67 -42.32 76.34 -43 76 C-45.99657008 77.23908805 -48.64378491 79.0161911 -51.375 80.75 C-57.62477874 84.54851822 -64.237392 87.25208148 -71 90 C-71 90.66 -71 91.32 -71 92 C-73.35438733 93.42944945 -74.48032433 94.08661261 -77.25 93.625 C-77.8275 93.41875 -78.405 93.2125 -79 93 C-78.67 92.67 -78.34 92.34 -78 92 C-80.475 92.495 -80.475 92.495 -83 93 C-82.01 93.66 -81.02 94.32 -80 95 C-82.14451505 95.48503256 -84.29069535 95.96270405 -86.4375 96.4375 C-87.63246094 96.70433594 -88.82742187 96.97117187 -90.05859375 97.24609375 C-117.01385088 102.70939849 -145.69158647 98.96843413 -168.79516602 83.66479492 C-188.33325624 70.2760005 -205.2152928 53.73845122 -217 33 C-217 32.01 -217 31.02 -217 30 C-216.01 30 -215.02 30 -214 30 C-213.67128906 30.65484375 -213.34257812 31.3096875 -213.00390625 31.984375 C-207.63666333 42.28249962 -198.7633789 58.61831055 -188 64 C-189.98 62.02 -191.96 60.04 -194 58 C-193.67 57.34 -193.34 56.68 -193 56 C-192.40574219 56.6290625 -191.81148437 57.258125 -191.19921875 57.90625 C-170.93141752 78.83598564 -143.58271866 91.57458075 -114.31640625 92.3515625 C-97.53151398 92.49772992 -82.36833957 89.74726997 -67 83 C-65.79472656 82.4740625 -64.58945313 81.948125 -63.34765625 81.40625 C-43.32551988 72.02571318 -29.31285379 56.7369141 -18 38 C-17.06577996 40.52239411 -16.94943678 41.8151929 -17.66796875 44.44140625 C-19.2088823 47.40122553 -21.02827971 49.50739673 -23.3125 51.9375 C-27.05364931 55.96316676 -27.05364931 55.96316676 -30.5625 60.1875 C-36.438465 66.96745961 -43.59700113 72.00904379 -51 77 C-45.23122492 74.10225881 -40.47947108 70.94246687 -35.82421875 66.453125 C-34 65 -34 65 -31.9375 64.52734375 C-29.2669126 63.80047016 -28.74828954 62.64511905 -27.3125 60.3125 C-25.45069838 57.32306081 -23.57827375 54.36319305 -21.578125 51.46484375 C-20.73940336 50.22668439 -19.90086141 48.9884033 -19.0625 47.75 C-18.64846924 47.16001221 -18.23443848 46.57002441 -17.80786133 45.9621582 C-15.4652762 42.5854179 -15.4652762 42.5854179 -15.43359375 38.640625 C-15.71396484 37.33351563 -15.71396484 37.33351563 -16 36 C-15.26257498 32.90993112 -14.10013145 29.97679217 -13 27 C-12.40852662 25.22492011 -11.8240613 23.44749197 -11.24609375 21.66796875 C-10.6432527 19.84113807 -10.04038792 18.01431522 -9.4375 16.1875 C-9.13392578 15.26001953 -8.83035156 14.33253906 -8.51757812 13.37695312 C-8.07381836 12.03600586 -8.07381836 12.03600586 -7.62109375 10.66796875 C-7.3573999 9.86641357 -7.09370605 9.0648584 -6.82202148 8.23901367 C-6.02298046 6.06259393 -5.07858655 4.0502228 -4 2 C-3.34 2 -2.68 2 -2 2 C-2.33 4.64 -2.66 7.28 -3 10 C-2.01 6.7 -1.02 3.4 0 0 Z " fill="#1F1E1F" transform="translate(255,147)"/>
<path d="M0 0 C2.95833325 4.48322805 2.34023448 9.44705669 2.3125 14.625 C2.30839111 16.15858154 2.30839111 16.15858154 2.30419922 17.72314453 C2.1779049 27.04714911 0.92040156 35.89448627 -1 45 C-1.21269531 46.02609375 -1.42539063 47.0521875 -1.64453125 48.109375 C-2.06962544 50.07887614 -2.5284155 52.04111055 -3 54 C-3.33 54 -3.66 54 -4 54 C-3.47579249 48.13215702 -2.77351235 42.3314945 -1.8449707 36.5144043 C-0.22262822 26.25447327 0.36708983 16.3736866 0 6 C-1.32 5.67 -2.64 5.34 -4 5 C-11.80429118 24.24553359 -10.97864162 44.6129247 -9 65 C-8.34 65 -7.68 65 -7 65 C-6.90203125 65.56847656 -6.8040625 66.13695313 -6.703125 66.72265625 C-5.64168 72.20373863 -4.43791927 76.53999662 -1 81 C2.38875038 82.49608434 2.38875038 82.49608434 6 82 C10.66824328 78.71101041 12.69553198 74.42984812 14 69 C14.80934083 64.01243715 15.44424145 59.02144192 16 54 C17.32 54 18.64 54 20 54 C20.495 57.465 20.495 57.465 21 61 C21.33 61 21.66 61 22 61 C22.125 66.75 22.125 66.75 21 69 C19.35 68.67 17.7 68.34 16 68 C15.90203125 68.58007812 15.8040625 69.16015625 15.703125 69.7578125 C14.5047919 76.0180699 12.79276209 80.53579816 7.875 84.875 C3.54331763 86.57000615 -0.42520818 86.91495836 -5 86 C-8.76597269 83.62027493 -11.40051416 80.15866318 -13 76 C-13.99 76.99 -14.98 77.98 -16 79 C-15.90460938 78.32195312 -15.80921875 77.64390625 -15.7109375 76.9453125 C-15.60007813 76.01460938 -15.48921875 75.08390625 -15.375 74.125 C-15.25898438 73.22007812 -15.14296875 72.31515625 -15.0234375 71.3828125 C-15.00322152 68.46497312 -15.29497389 66.48650101 -15.95703125 63.69921875 C-17.43354355 56.854969 -17.3355663 49.97215162 -17.31567383 43.00610352 C-17.31252006 40.70215194 -17.33602252 38.39949635 -17.36132812 36.09570312 C-17.41407821 23.76129123 -16.86785294 9.55463824 -8.125 -0.0625 C-5.03620967 -1.42520162 -3.16819594 -1.03310737 0 0 Z " fill="#1B1C20" transform="translate(168,57)"/>
<path d="M0 0 C2.66084142 0.69250777 5.32924396 1.34629786 8 2 C7.01 1.01 7.01 1.01 6 0 C9.8063457 0.67170806 13.35206816 1.72746564 17 3 C17 3.66 17 4.32 17 5 C17.88558594 5.27070313 18.77117187 5.54140625 19.68359375 5.8203125 C30.0250838 9.49891085 37.88046406 17.16160771 45.61376953 24.66064453 C46.737122 25.74601115 47.87947306 26.81169093 49.02734375 27.87109375 C58.33048165 36.64887798 66.2275664 48.1870082 73 59 C73 59.66 73 60.32 73 61 C71.19921875 60.83203125 71.19921875 60.83203125 69 60 C67.39453125 57.69921875 67.39453125 57.69921875 65.8125 54.6875 C62.09179973 47.94979712 57.73159995 42.0512979 53 36 C53 36.99 53 37.98 53 39 C52.319375 38.319375 51.63875 37.63875 50.9375 36.9375 C50.4734375 36.47730469 50.009375 36.01710937 49.53125 35.54296875 C48.51542618 34.51937076 47.51503433 33.48020966 46.53125 32.42578125 C41.24803747 26.87063866 35.23673938 22.43115996 29 18 C28.13503906 17.37867187 27.27007812 16.75734375 26.37890625 16.1171875 C2.19499786 -0.29989491 -28.69167623 -4.05229343 -57 1 C-66.5601947 2.89409488 -74.82359345 6.00928007 -83.45483398 10.44580078 C-85.27075712 11.36441135 -87.13308636 12.19002738 -89 13 C-89.99 12.67 -90.98 12.34 -92 12 C-94.37003456 13.19237764 -96.56453866 14.42135325 -98.8125 15.8125 C-103.1300309 18.45278304 -107.0902501 20.57895447 -112 22 C-109.14469286 18.11814196 -106.1867866 15.45262392 -102.25 12.6875 C-101.26515625 11.99011719 -100.2803125 11.29273438 -99.265625 10.57421875 C-98.51796875 10.05472656 -97.7703125 9.53523438 -97 9 C-96.34 9.33 -95.68 9.66 -95 10 C-93.09679837 9.2295405 -93.09679837 9.2295405 -91 8 C-64.46072061 -6.61200789 -28.82421386 -8.84415968 0 0 Z " fill="#1E2125" transform="translate(173,23)"/>
<path d="M0 0 C0.99 0 1.98 0 3 0 C3.49306641 0.98226562 3.49306641 0.98226562 3.99609375 1.984375 C9.36333667 12.28249962 18.2366211 28.61831055 29 34 C27.02 32.02 25.04 30.04 23 28 C23.33 27.34 23.66 26.68 24 26 C24.59425781 26.6290625 25.18851563 27.258125 25.80078125 27.90625 C40.725431 43.31832999 58.40574559 53.35902641 79 59 C80.21300781 59.3403125 81.42601563 59.680625 82.67578125 60.03125 C95.2362118 62.94537782 108.09970228 62.22224713 120.91064453 61.93408203 C124.03399797 62.00072542 126.9358338 62.41062669 130 63 C130 63.33 130 63.66 130 64 C105.56188285 67.23530629 82.04440637 67.15840259 59 57 C74.83420833 64.44421355 91.01971975 67.18603036 108.4375 67.0625 C109.64599609 67.05798828 110.85449219 67.05347656 112.09960938 67.04882812 C115.06645789 67.03710145 118.0332027 67.02068896 121 67 C121 67.33 121 67.66 121 68 C94.04830064 72.63644618 67.05539632 67.01114729 44.74707031 51.25927734 C26.68025798 38.23683212 11.07916593 22.49685624 0 3 C0 2.01 0 1.02 0 0 Z " fill="#171515" transform="translate(38,177)"/>
<path d="M0 0 C3.04846865 0.32956418 4.58429646 0.5694499 6.75 2.8125 C9.4024894 7.45435645 9.79406249 12.76640634 9 18 C7.65710298 20.8941746 6.56055796 21.88475647 4 24 C0.09332162 24.15945626 -1.43011986 23.49489592 -4.375 20.9375 C-4.91125 20.298125 -5.4475 19.65875 -6 19 C-7.0828125 20.2375 -7.0828125 20.2375 -8.1875 21.5 C-11 24 -11 24 -13.5625 24.5625 C-16.96820098 23.776569 -18.01701975 22.90364965 -20 20 C-20.61816453 17.00705341 -20.8696452 14.05030234 -21 11 C-21.66 11 -22.32 11 -23 11 C-23.18175781 11.60328125 -23.36351562 12.2065625 -23.55078125 12.828125 C-26.04745167 20.76625659 -26.04745167 20.76625659 -29 24 C-30.65 23.67 -32.3 23.34 -34 23 C-34.07347656 21.82630859 -34.07347656 21.82630859 -34.1484375 20.62890625 C-34.22320312 19.61699219 -34.29796875 18.60507813 -34.375 17.5625 C-34.44460937 16.55316406 -34.51421875 15.54382813 -34.5859375 14.50390625 C-34.72257813 13.67761719 -34.85921875 12.85132812 -35 12 C-35.66 11.67 -36.32 11.34 -37 11 C-36 10 -36 10 -33.4375 9.9375 C-32.633125 9.958125 -31.82875 9.97875 -31 10 C-30.01 12.97 -29.02 15.94 -28 19 C-27.68546875 18.28972656 -27.3709375 17.57945313 -27.046875 16.84765625 C-26.61890625 15.92855469 -26.1909375 15.00945312 -25.75 14.0625 C-25.12351563 12.68771484 -25.12351563 12.68771484 -24.484375 11.28515625 C-23 9 -23 9 -20.93359375 8.125 C-19 8 -19 8 -17.3125 8.9375 C-15.28731068 12.11994036 -15.36155984 15.26388166 -15 19 C-13.93354885 20.29633621 -13.93354885 20.29633621 -11.4375 20.0625 C-10.2309375 20.0315625 -10.2309375 20.0315625 -9 20 C-7.02531813 16.4994276 -5.79072907 13.36075213 -5.0625 9.4375 C-4.26618311 5.40827266 -2.9016228 2.99834356 0 0 Z " fill="#212223" transform="translate(229,98)"/>
<path d="M0 0 C1.32 0 2.64 0 4 0 C3.97494385 0.58974609 3.9498877 1.17949219 3.92407227 1.78710938 C3.14917595 20.18782193 2.55011534 38.59147811 2 57 C0.906875 56.979375 -0.18625 56.95875 -1.3125 56.9375 C-4.94384191 56.81455548 -4.94384191 56.81455548 -8 58 C-7.67 56.68 -7.34 55.36 -7 54 C-6.34 54 -5.68 54 -5 54 C-5.02320313 52.89527344 -5.04640625 51.79054687 -5.0703125 50.65234375 C-5.3104788 33.83153622 -5.20980843 16.15040613 0 0 Z " fill="#1F1E21" transform="translate(66,95)"/>
<path d="M0 0 C2.95833325 4.48322805 2.34023448 9.44705669 2.3125 14.625 C2.30839111 16.15858154 2.30839111 16.15858154 2.30419922 17.72314453 C2.1779049 27.04714911 0.92040156 35.89448627 -1 45 C-1.21269531 46.02609375 -1.42539063 47.0521875 -1.64453125 48.109375 C-2.06962544 50.07887614 -2.5284155 52.04111055 -3 54 C-3.33 54 -3.66 54 -4 54 C-3.47579249 48.13215702 -2.77351235 42.3314945 -1.8449707 36.5144043 C-0.22262822 26.25447327 0.36708983 16.3736866 0 6 C-1.32 5.67 -2.64 5.34 -4 5 C-7.07677695 12.58739171 -8.92380059 19.88602288 -10 28 C-10.66 28 -11.32 28 -12 28 C-11.98952637 28.62567871 -11.97905273 29.25135742 -11.96826172 29.89599609 C-11.92676809 32.7222901 -11.90069527 35.54852011 -11.875 38.375 C-11.84986328 39.85226563 -11.84986328 39.85226563 -11.82421875 41.359375 C-11.81777344 42.30039063 -11.81132812 43.24140625 -11.8046875 44.2109375 C-11.79421387 45.08024902 -11.78374023 45.94956055 -11.77294922 46.84521484 C-12 49 -12 49 -14 51 C-19.13568693 43.2964696 -17.81634853 27.74528346 -16.53125 18.73828125 C-15.04896654 11.9310556 -12.88555621 5.17411183 -8.125 -0.0625 C-5.03620967 -1.42520162 -3.16819594 -1.03310737 0 0 Z " fill="#292A30" transform="translate(168,57)"/>
<path d="M0 0 C3.875 0.875 3.875 0.875 5 2 C5.79026168 13.97550395 6.45240135 31.09519729 1 42 C0.34 42 -0.32 42 -1 42 C-1 41.01 -1 40.02 -1 39 C-1.66 39.99 -2.32 40.98 -3 42 C-3.66 41.67 -4.32 41.34 -5 41 C-7.34958094 11.02437142 -7.34958094 11.02437142 0 0 Z " fill="#BEBFC1" transform="translate(164,61)"/>
<path d="M0 0 C1.32 0 2.64 0 4 0 C5.75 2 5.75 2 7 4 C6.01 4 5.02 4 4 4 C4 4.66 4 5.32 4 6 C7.12197478 4.6910428 7.12197478 4.6910428 9 2 C11.32249342 1.59802999 13.65885633 1.27313343 16 1 C17.66934283 0.68033861 19.3373217 0.35268934 21 0 C20 2 20 2 19 3 C19.99 3.33 20.98 3.66 22 4 C21.34 4.66 20.68 5.32 20 6 C20.99 6.33 21.98 6.66 23 7 C20.69 7.66 18.38 8.32 16 9 C15.67 10.65 15.34 12.3 15 14 C14.34 13.67 13.68 13.34 13 13 C12.67 13.33 12.34 13.66 12 14 C9.625 14.25 9.625 14.25 7 14 C5.1875 12.5 5.1875 12.5 4 11 C3.34 12.32 2.68 13.64 2 15 C1.34 14.01 0.68 13.02 0 12 C-2.475 13.485 -2.475 13.485 -5 15 C-5.99 14.34 -6.98 13.68 -8 13 C-9.33568021 13.32380126 -10.66923011 13.65657551 -12 14 C-12.66 13.34 -13.32 12.68 -14 12 C-13.44444444 7.44444444 -13.44444444 7.44444444 -12 6 C-9.66702567 5.95907063 -7.33294775 5.95758277 -5 6 C-5 5.01 -5 4.02 -5 3 C-4.360625 2.690625 -3.72125 2.38125 -3.0625 2.0625 C-1.06389179 1.1654837 -1.06389179 1.1654837 0 0 Z " fill="#B3B3B2" transform="translate(213,137)"/>
<path d="M0 0 C0.99 0 1.98 0 3 0 C3.02505615 0.71655762 3.0501123 1.43311523 3.07592773 2.17138672 C3.19169751 5.40611514 3.31450969 8.64053841 3.4375 11.875 C3.47681641 13.00292969 3.51613281 14.13085938 3.55664062 15.29296875 C3.59853516 16.36933594 3.64042969 17.44570312 3.68359375 18.5546875 C3.72025146 19.54968262 3.75690918 20.54467773 3.79467773 21.56982422 C3.84959532 24.00779501 3.84959532 24.00779501 5 26 C8.36720387 24.60667426 9.9859524 23.0210714 12 20 C11.64505955 22.62655933 11.27538036 24.57968261 9.8125 26.8125 C7.11075568 28.58260835 5.15326426 28.39415803 2 28 C-0.62769914 26.19942166 -0.99748647 25.01079339 -1.73046875 21.86328125 C-1.88128906 20.69152344 -2.03210938 19.51976562 -2.1875 18.3125 C-2.34605469 17.13300781 -2.50460938 15.95351562 -2.66796875 14.73828125 C-2.77753906 13.83464844 -2.88710937 12.93101562 -3 12 C-3.32613281 12.90363281 -3.65226562 13.80726563 -3.98828125 14.73828125 C-4.42527344 15.91777344 -4.86226562 17.09726563 -5.3125 18.3125 C-5.74175781 19.48425781 -6.17101562 20.65601563 -6.61328125 21.86328125 C-7.84067918 24.6396208 -8.58490316 26.22681048 -11 28 C-13.4375 28.125 -13.4375 28.125 -16 27 C-20.01190724 21.79536358 -20.81216587 17.47378596 -20 11 C-19.21380075 8.11726943 -18.32979955 5.65959911 -17 3 C-16.01 3 -15.02 3 -14 3 C-13.93941406 4.12019531 -13.87882812 5.24039063 -13.81640625 6.39453125 C-13.73198576 7.86719984 -13.64733851 9.33985544 -13.5625 10.8125 C-13.52318359 11.55048828 -13.48386719 12.28847656 -13.44335938 13.04882812 C-13.25618965 16.23071342 -13.01279207 18.96162378 -12 22 C-11.01 22.33 -10.02 22.66 -9 23 C-8.84144531 22.41734375 -8.68289062 21.8346875 -8.51953125 21.234375 C-3.46153846 3.46153846 -3.46153846 3.46153846 0 0 Z " fill="#1E1E20" transform="translate(140,116)"/>
<path d="M0 0 C2.34680297 0.61757973 4.68152126 1.2833793 7 2 C7.66 1.67 8.32 1.34 9 1 C26.59784542 8.92075234 40.93694484 25.60869688 52 41 C52.43038574 41.59619141 52.86077148 42.19238281 53.30419922 42.80664062 C61 53.52426307 61 53.52426307 61 56 C59.19921875 55.83203125 59.19921875 55.83203125 57 55 C55.39453125 52.69921875 55.39453125 52.69921875 53.8125 49.6875 C50.09179973 42.94979712 45.73159995 37.0512979 41 31 C41 31.99 41 32.98 41 34 C40.319375 33.319375 39.63875 32.63875 38.9375 31.9375 C38.4734375 31.47730469 38.009375 31.01710938 37.53125 30.54296875 C36.51542618 29.51937076 35.51503433 28.48020966 34.53125 27.42578125 C24.24123812 16.6061364 10.87679997 7.51645628 -3 2 C-2.01 1.34 -1.02 0.68 0 0 Z " fill="#20232A" transform="translate(185,28)"/>
<path d="M0 0 C1.5625 1.25 1.5625 1.25 3 3 C2.6875 4.9375 2.6875 4.9375 2 7 C2 8.32 2 9.64 2 11 C3.88316159 12.10836423 3.88316159 12.10836423 6 13 C6.66 12.67 7.32 12.34 8 12 C8 12.66 8 13.32 8 14 C9.32 14 10.64 14 12 14 C12.33 13.01 12.66 12.02 13 11 C13 12.32 13 13.64 13 15 C11.68 15 10.36 15 9 15 C8.67 15.99 8.34 16.98 8 18 C5.9375 19.1875 5.9375 19.1875 4 20 C2 17 2 17 2 14 C0.68 14.33 -0.64 14.66 -2 15 C-1.67 16.98 -1.34 18.96 -1 21 C-1.66 20.67 -2.32 20.34 -3 20 C-3.625 17.9375 -3.625 17.9375 -4 16 C-4.66 17.98 -5.32 19.96 -6 22 C-6.99 21.34 -7.98 20.68 -9 20 C-9.33 20.66 -9.66 21.32 -10 22 C-11.32 22 -12.64 22 -14 22 C-14.99 22.33 -15.98 22.66 -17 23 C-17.66 21.68 -18.32 20.36 -19 19 C-17.68 18.67 -16.36 18.34 -15 18 C-15.20625 17.4225 -15.4125 16.845 -15.625 16.25 C-16.08979923 13.46120465 -15.29883111 12.43530833 -14 10 C-14.33 9.34 -14.66 8.68 -15 8 C-14.32453125 7.90203125 -13.6490625 7.8040625 -12.953125 7.703125 C-6.02142581 6.63891862 -6.02142581 6.63891862 -1 2 C-0.67 1.34 -0.34 0.68 0 0 Z " fill="#9F9F9F" transform="translate(180,135)"/>
<path d="M0 0 C0.495 1.98 0.495 1.98 1 4 C0.50628906 4.39832031 0.01257812 4.79664063 -0.49609375 5.20703125 C-1.13675781 5.73683594 -1.77742188 6.26664063 -2.4375 6.8125 C-3.07558594 7.33457031 -3.71367188 7.85664062 -4.37109375 8.39453125 C-6.2548275 10.00834411 -6.2548275 10.00834411 -7 13 C-8.37267808 15.14426766 -9.76938797 17.26136246 -11.1875 19.375 C-15.44621623 25.87316941 -19.56788394 32.5767588 -22 40 C-21.56891963 42.17503388 -21.56891963 42.17503388 -21 44 C-21.66 44.66 -22.32 45.32 -23 46 C-23.16169042 49.7827285 -23.16169042 49.7827285 -22.375 52.5 C-21.93785684 55.41428772 -22.45727094 56.54978326 -24 59 C-24.33 58.67 -24.66 58.34 -25 58 C-25.66 59.98 -26.32 61.96 -27 64 C-27.99 64 -28.98 64 -30 64 C-30.99 64.495 -30.99 64.495 -32 65 C-30.05715214 40.69457679 -18.1585896 16.33258618 0 0 Z " fill="#1D1E21" transform="translate(58,47)"/>
<path d="M0 0 C0.33 0 0.66 0 1 0 C3.0755331 9.37696205 3.80515862 15.02652874 -0.515625 23.828125 C-2.14131668 26.20676861 -3.34464392 26.9787092 -6 28 C-8.20192224 24.69711664 -8.23959968 23.72537273 -8.1953125 19.89453125 C-8.18886719 18.91162109 -8.18242187 17.92871094 -8.17578125 16.91601562 C-8.15902344 15.89185547 -8.14226562 14.86769531 -8.125 13.8125 C-8.11597656 12.77673828 -8.10695312 11.74097656 -8.09765625 10.67382812 C-8.0740786 8.11565315 -8.0411703 5.55794252 -8 3 C-7.01 3.495 -7.01 3.495 -6 4 C-3.40952023 3.24714403 -3.40952023 3.24714403 -1 2 C-0.67 1.34 -0.34 0.68 0 0 Z " fill="#B0B1B3" transform="translate(151,115)"/>
<path d="M0 0 C0 0.33 0 0.66 0 1 C-0.73605469 1.04898437 -1.47210938 1.09796875 -2.23046875 1.1484375 C-3.69419922 1.26058594 -3.69419922 1.26058594 -5.1875 1.375 C-6.15042969 1.44460937 -7.11335938 1.51421875 -8.10546875 1.5859375 C-11.02293284 2.00328054 -13.29537581 2.86698176 -16 4 C-18.8125 4.125 -18.8125 4.125 -21 4 C-21.33 5.32 -21.66 6.64 -22 8 C-23.60049704 8.39036513 -25.20562371 8.76178619 -26.8125 9.125 C-27.70582031 9.33382813 -28.59914062 9.54265625 -29.51953125 9.7578125 C-32 10 -32 10 -35 8 C-35.33 8.66 -35.66 9.32 -36 10 C-36.99 10 -37.98 10 -39 10 C-39.268125 10.639375 -39.53625 11.27875 -39.8125 11.9375 C-41 14 -41 14 -44 15 C-44 14.34 -44 13.68 -44 13 C-45.32 13.99 -46.64 14.98 -48 16 C-48.66 15.67 -49.32 15.34 -50 15 C-50.45375 15.495 -50.9075 15.99 -51.375 16.5 C-53 18 -53 18 -55 18 C-55 18.66 -55 19.32 -55 20 C-55.66 20.33 -56.32 20.66 -57 21 C-56.34 21.99 -55.68 22.98 -55 24 C-57.97 24.33 -60.94 24.66 -64 25 C-61.70335612 20.40671225 -60.06036179 18.98312295 -56 16 C-55.01 16 -54.02 16 -53 16 C-53 15.34 -53 14.68 -53 14 C-35.81932454 5.16917129 -19.58210208 -1.31718175 0 0 Z " fill="#D5D9DC" transform="translate(135,22)"/>
<path d="M0 0 C2.83611762 0.43702615 5.6247403 1.03905925 8.43359375 1.625 C10.9821223 2.24720296 10.9821223 2.24720296 13 1 C13.19335938 1.78246094 13.38671875 2.56492188 13.5859375 3.37109375 C13.97652344 4.88896484 13.97652344 4.88896484 14.375 6.4375 C14.63023437 7.44683594 14.88546875 8.45617187 15.1484375 9.49609375 C15.72573954 12.15570324 15.72573954 12.15570324 18 13 C14.80389448 13 13.58282374 12.45328458 10.8125 11 C10.09707031 10.62875 9.38164062 10.2575 8.64453125 9.875 C8.10183594 9.58625 7.55914062 9.2975 7 9 C6.34 9.66 5.68 10.32 5 11 C2.525 10.01 2.525 10.01 0 9 C0 9.99 0 10.98 0 12 C-4.455 12.495 -4.455 12.495 -9 13 C-9.33 10.36 -9.66 7.72 -10 5 C-8.02 4.67 -6.04 4.34 -4 4 C-4 3.34 -4 2.68 -4 2 C-3.01 1.67 -2.02 1.34 -1 1 C-0.67 0.67 -0.34 0.34 0 0 Z " fill="#9C9B9B" transform="translate(134,154)"/>
<path d="M0 0 C0.99 0.33 1.98 0.66 3 1 C3.33 3.31 3.66 5.62 4 8 C4.33 8 4.66 8 5 8 C5.125 13.75 5.125 13.75 4 16 C1.525 15.505 1.525 15.505 -1 15 C-1.09796875 15.58007812 -1.1959375 16.16015625 -1.296875 16.7578125 C-2.4952081 23.0180699 -4.20723791 27.53579816 -9.125 31.875 C-13.42769626 33.55866375 -17.45836478 33.96044417 -22 33 C-24.35687326 31.19306383 -25.39577957 29.56675269 -27 27 C-26.071875 27.165 -25.14375 27.33 -24.1875 27.5 C-21.04378647 28.07748388 -21.04378647 28.07748388 -18 28 C-16.88625 28.268125 -15.7725 28.53625 -14.625 28.8125 C-10.93463993 29.37739826 -10.93463993 29.37739826 -8.25 27.0625 C-3.05895029 19.99690456 -2.38161791 12.57317702 -1.4296875 4.09765625 C-1 1 -1 1 0 0 Z " fill="#1E1F22" transform="translate(185,110)"/>
<path d="M0 0 C-2.74654509 1.83103006 -4.01162017 2.37181052 -7.10546875 3.0078125 C-17.55216517 5.30291219 -26.53001471 8.26565057 -35.91015625 13.42578125 C-39 15 -39 15 -42 15 C-44.62449395 16.04979758 -46.40925291 17.33129997 -48.625 19.125 C-51 21 -51 21 -53 21 C-53.33 19.02 -53.66 17.04 -54 15 C-53.2575 15.04125 -52.515 15.0825 -51.75 15.125 C-48.91241048 14.99601866 -47.41226062 14.42948778 -45 13 C-45 10.69 -45 8.38 -45 6 C-44.34 5.67 -43.68 5.34 -43 5 C-43 5.66 -43 6.32 -43 7 C-42.071875 7 -41.14375 7 -40.1875 7 C-38.125 7 -36.0625 7 -34 7 C-34.33 7.66 -34.66 8.32 -35 9 C-34.410979 8.79842285 -33.82195801 8.5968457 -33.21508789 8.38916016 C-30.49920943 7.46285113 -27.78089568 6.54389432 -25.0625 5.625 C-24.13630859 5.30789062 -23.21011719 4.99078125 -22.25585938 4.6640625 C-7.05765519 -0.45533259 -7.05765519 -0.45533259 0 0 Z " fill="#D3D6DA" transform="translate(118,19)"/>
<path d="M0 0 C0.598125 0.165 1.19625 0.33 1.8125 0.5 C4.11344336 1.1114124 4.11344336 1.1114124 7 1 C7.06058594 1.62648437 7.12117188 2.25296875 7.18359375 2.8984375 C7.26738281 3.71570313 7.35117188 4.53296875 7.4375 5.375 C7.51871094 6.18710938 7.59992188 6.99921875 7.68359375 7.8359375 C7.89090114 10.04272805 7.89090114 10.04272805 9 12 C7.77734375 14.28515625 7.77734375 14.28515625 5.9375 17.0625 C5.28910156 18.04605469 4.64070313 19.02960938 3.97265625 20.04296875 C3.32167969 21.01878906 2.67070312 21.99460938 2 23 C1.46246094 23.84175781 0.92492187 24.68351562 0.37109375 25.55078125 C-6.11528959 35.62753866 -6.11528959 35.62753866 -10.7734375 37.84375 C-14.92218735 39.99818852 -18.45136676 43.13388028 -22.125 46.00390625 C-24.59949889 47.72193469 -26.07291922 48.59893364 -29 49 C-26.64661317 46.4504976 -24.17080184 44.34426692 -21.375 42.3125 C-12.2978517 35.57621184 -4.88981255 27.9468936 2 19 C2.85851562 17.94039062 2.85851562 17.94039062 3.734375 16.859375 C5.57787772 14.15101915 5.32749124 12.20941412 5 9 C4.08742694 6.21433941 4.08742694 6.21433941 3 4 C2.01 4 1.02 4 0 4 C0 2.68 0 1.36 0 0 Z " fill="#ADAAA8" transform="translate(232,176)"/>
<path d="M0 0 C0.66 0.33 1.32 0.66 2 1 C2.04939115 5.09338652 2.08571501 9.18665798 2.10986328 13.28027344 C2.11992877 14.67320781 2.13358234 16.06612102 2.15087891 17.45898438 C2.1751022 19.4595436 2.18540814 21.46025615 2.1953125 23.4609375 C2.20578613 24.66540527 2.21625977 25.86987305 2.22705078 27.11083984 C2 30 2 30 0 32 C-2 32 -2 32 -4 31 C-6.69197983 26.00060889 -6.50172546 20.37805429 -5 15 C-4.154375 14.360625 -3.30875 13.72125 -2.4375 13.0625 C0.27821921 11.23798712 0.27821921 11.23798712 0.328125 8.32421875 C0.31394478 5.53425977 0.21578423 2.78121895 0 0 Z " fill="#151416" transform="translate(72,159)"/>
<path d="M0 0 C2.9375 0.875 2.9375 0.875 4.10229492 2.63037109 C5.64874369 6.78648041 5.27349548 11.11346515 5.25 15.5 C5.24589111 17.03358154 5.24589111 17.03358154 5.24169922 18.59814453 C5.1154049 27.92214911 3.85790156 36.76948627 1.9375 45.875 C1.72480469 46.90109375 1.51210937 47.9271875 1.29296875 48.984375 C0.86787456 50.95387614 0.4090845 52.91611055 -0.0625 54.875 C-0.3925 54.875 -0.7225 54.875 -1.0625 54.875 C-0.53829249 49.00715702 0.16398765 43.2064945 1.0925293 37.3894043 C2.71487178 27.12947327 3.30458983 17.2486866 2.9375 6.875 C1.6175 6.545 0.2975 6.215 -1.0625 5.875 C-2.0525 7.195 -3.0425 8.515 -4.0625 9.875 C-5.3825 9.545 -6.7025 9.215 -8.0625 8.875 C-8.0625 9.865 -8.0625 10.855 -8.0625 11.875 C-8.7225 11.875 -9.3825 11.875 -10.0625 11.875 C-10.3925 12.535 -10.7225 13.195 -11.0625 13.875 C-10.58603853 8.87215458 -9.12961438 5.84420685 -6.0625 1.875 C-3.0625 -0.125 -3.0625 -0.125 0 0 Z " fill="#181A1E" transform="translate(165.0625,56.125)"/>
<path d="M0 0 C0.66 0 1.32 0 2 0 C1.1351626 11.34726307 -1.19040976 20.64653093 -6 31 C-6.49628906 32.11117187 -6.99257812 33.22234375 -7.50390625 34.3671875 C-9 37 -9 37 -12 38 C-12.47525831 32.36863733 -10.815374 28.33026589 -8.6875 23.25 C-6.3726045 17.539963 -4.19768649 11.90811452 -2.60546875 5.9453125 C-1.94570446 3.82555367 -1.04028508 1.95766728 0 0 Z " fill="#5F5F5F" transform="translate(251,149)"/>
<path d="M0 0 C2.0625 0.4375 2.0625 0.4375 4 1 C3.01 1.33 2.02 1.66 1 2 C2.32 2.66 3.64 3.32 5 4 C4.34 4.66 3.68 5.32 3 6 C3.99 6.33 4.98 6.66 6 7 C3.69 7.66 1.38 8.32 -1 9 C-1.33 10.65 -1.66 12.3 -2 14 C-2.66 13.67 -3.32 13.34 -4 13 C-4.33 13.33 -4.66 13.66 -5 14 C-7.4375 14.1875 -7.4375 14.1875 -10 14 C-12 12 -12 12 -12.125 9.375 C-12.08375 8.59125 -12.0425 7.8075 -12 7 C-11.34 7 -10.68 7 -10 7 C-9.34 5.35 -8.68 3.7 -8 2 C-6.2984375 1.7834375 -6.2984375 1.7834375 -4.5625 1.5625 C-1.19222799 1.38828522 -1.19222799 1.38828522 0 0 Z " fill="#B0B0AE" transform="translate(230,137)"/>
<path d="M0 0 C9 3 9 3 10.99291992 3.69799805 C28.27798958 9.6624712 45.5971463 11.46707772 63.7421875 9.22265625 C67.81999853 8.82051918 71.90731356 8.92162941 76 9 C61.79887948 17.32479479 37.1961383 13.79272538 22 10 C14.26123815 7.89091108 6.73974078 5.43836588 0 1 C0 0.67 0 0.34 0 0 Z " fill="#9D9C9C" transform="translate(94,232)"/>
<path d="M0 0 C1.1875 3.0625 1.1875 3.0625 2 6 C0.7934375 7.175625 0.7934375 7.175625 -0.4375 8.375 C-2.98690417 10.71982856 -2.98690417 10.71982856 -4 13 C-5.65 13 -7.3 13 -9 13 C-9.33 12.01 -9.66 11.02 -10 10 C-10.99 9.34 -11.98 8.68 -13 8 C-13.6875 4.875 -13.6875 4.875 -14 2 C-11.66836622 1.32741333 -9.3347961 0.66152556 -7 0 C-6.2575 -0.226875 -5.515 -0.45375 -4.75 -0.6875 C-3 -1 -3 -1 0 0 Z " fill="#B1B0B0" transform="translate(122,161)"/>
<path d="M0 0 C0.66 0 1.32 0 2 0 C0.30524139 14.7722243 -3.95435043 35.95435043 -15 47 C-15.76149834 44.76124434 -16.15295808 43.46210225 -15.3984375 41.18261719 C-15.06070313 40.56032227 -14.72296875 39.93802734 -14.375 39.296875 C-14.00109131 38.5747583 -13.62718262 37.8526416 -13.24194336 37.10864258 C-12.83210205 36.33029053 -12.42226074 35.55193848 -12 34.75 C-6.40263597 23.63572235 -3.15295871 11.99726202 0 0 Z " fill="#171617" transform="translate(255,147)"/>
<path d="M0 0 C0.99 0.33 1.98 0.66 3 1 C3.33 3.64 3.66 6.28 4 9 C4.33 7.35 4.66 5.7 5 4 C5.33 4 5.66 4 6 4 C6.33 7.63 6.66 11.26 7 15 C6.01 15.33 5.02 15.66 4 16 C2.82917122 18.92914165 2.82917122 18.92914165 2 22 C1.67 22.66 1.34 23.32 1 24 C0.34 24 -0.32 24 -1 24 C-3.35741161 16.92776517 -3.24555204 10.34273015 -2 3 C-1.34 2.01 -0.68 1.02 0 0 Z " fill="#242327" transform="translate(66,155)"/>
<path d="M0 0 C0.70060547 0.13768799 1.40121094 0.27537598 2.12304688 0.41723633 C7.94881937 1.59185171 13.6800379 3.04875073 19.375 4.75 C18.715 4.09 18.055 3.43 17.375 2.75 C21.1813457 3.42170806 24.72706816 4.47746564 28.375 5.75 C28.375 6.41 28.375 7.07 28.375 7.75 C29.035 7.75 29.695 7.75 30.375 7.75 C30.87 9.235 30.87 9.235 31.375 10.75 C28.54296875 9.96875 28.54296875 9.96875 25.7109375 9.1875 C23.29294356 8.65356614 23.29294356 8.65356614 20.45703125 8.80078125 C17.12812444 8.74593234 14.81362994 8.05188811 11.6875 6.9375 C3.10213184 4.1387895 -5.70357024 2.99353614 -14.625 1.75 C-10.3938558 -2.4811442 -5.40055586 -1.11312599 0 0 Z " fill="#1A1D22" transform="translate(161.625,20.25)"/>
<path d="M0 0 C0.66 0 1.32 0 2 0 C3.00508801 1.78881736 4.00392736 3.58114696 5 5.375 C5.8353125 6.87160156 5.8353125 6.87160156 6.6875 8.3984375 C8 11 8 11 8 13 C9.32 13 10.64 13 12 13 C12 13.66 12 14.32 12 15 C12.66 15.33 13.32 15.66 14 16 C13.34 16 12.68 16 12 16 C12.40992188 16.51949219 12.81984375 17.03898437 13.2421875 17.57421875 C17.78872907 23.45861825 17.78872907 23.45861825 19 26.5625 C20.53989318 30.31598963 23.28083781 33.03286389 26 36 C18.1812123 32.4772495 13.20337063 25.17172729 8.25 18.4375 C7.79036865 17.81270752 7.3307373 17.18791504 6.85717773 16.54418945 C-1.14789504 5.44197661 -1.14789504 5.44197661 -0.75 1.5625 C-0.5025 1.046875 -0.255 0.53125 0 0 Z " fill="#696866" transform="translate(43,177)"/>
<path d="M0 0 C3 1 3 1 4.1875 3 C5.26114888 6.96424203 5.70917391 10.92796917 5 15 C3.64453125 16.78515625 3.64453125 16.78515625 2 18 C-0.625 17.8125 -0.625 17.8125 -3 17 C-4.59658307 13.80683387 -4.38032517 10.474496 -4 7 C-1.84375 1.84375 -1.84375 1.84375 0 0 Z " fill="#ADAEAF" transform="translate(231,101)"/>
<path d="M0 0 C0.33 0 0.66 0 1 0 C1 7.92 1 15.84 1 24 C-1.31 24 -3.62 24 -6 24 C-6.99 24.33 -7.98 24.66 -9 25 C-8.67 23.68 -8.34 22.36 -8 21 C-7.34 21 -6.68 21 -6 21 C-6 14.73 -6 8.46 -6 2 C-4.35 2.99 -2.7 3.98 -1 5 C-0.67 3.35 -0.34 1.7 0 0 Z " fill="#2F2E31" transform="translate(67,128)"/>
<path d="M0 0 C13.4193223 0.34012107 26.57789465 6.19190896 38 13 C38.66 13.99 39.32 14.98 40 16 C39.236875 15.835 38.47375 15.67 37.6875 15.5 C34.96403764 14.90854604 34.96403764 14.90854604 32 15 C29 14.3125 29 14.3125 26 13 C25.608125 12.13375 25.21625 11.2675 24.8125 10.375 C24.214375 9.59125 23.61625 8.8075 23 8 C19.30325637 7.54340815 15.70693809 7.71678741 12 8 C11.70609375 7.35289063 11.4121875 6.70578125 11.109375 6.0390625 C10.21633314 3.8580716 10.21633314 3.8580716 8.25 3.375 C7.5075 3.25125 6.765 3.1275 6 3 C3.99617991 2.34490497 1.99541868 1.68025637 0 1 C0 0.67 0 0.34 0 0 Z " fill="#C9CDCE" transform="translate(160,24)"/>
<path d="M0 0 C0.66 0.33 1.32 0.66 2 1 C1.67 1.66 1.34 2.32 1 3 C1.66 3.33 2.32 3.66 3 4 C1.06891037 5.03290841 -0.870118 6.05098672 -2.8125 7.0625 C-3.89144531 7.63097656 -4.97039062 8.19945312 -6.08203125 8.78515625 C-9 10 -9 10 -12 9 C-14.37003456 10.19237764 -16.56453866 11.42135325 -18.8125 12.8125 C-23.1300309 15.45278304 -27.0902501 17.57895447 -32 19 C-29.14469286 15.11814196 -26.1867866 12.45262392 -22.25 9.6875 C-21.26515625 8.99011719 -20.2803125 8.29273438 -19.265625 7.57421875 C-18.51796875 7.05472656 -17.7703125 6.53523438 -17 6 C-16.34 6.33 -15.68 6.66 -15 7 C-13.11961409 6.21753841 -13.11961409 6.21753841 -11 5 C-9.13077935 4.09216934 -7.25539823 3.19694607 -5.375 2.3125 C-4.41335937 1.85488281 -3.45171875 1.39726562 -2.4609375 0.92578125 C-1.64882812 0.62027344 -0.83671875 0.31476562 0 0 Z " fill="#25282D" transform="translate(93,26)"/>
<path d="M0 0 C0.66 0.33 1.32 0.66 2 1 C0.80117187 1.78310547 0.80117187 1.78310547 -0.421875 2.58203125 C-14.57389263 11.99861617 -26.00296328 23.23118752 -36 37 C-36.33 36.34 -36.66 35.68 -37 35 C-36.4946875 34.31292969 -35.989375 33.62585938 -35.46875 32.91796875 C-34.8190625 32.01691406 -34.169375 31.11585937 -33.5 30.1875 C-32.52546875 28.84751953 -32.52546875 28.84751953 -31.53125 27.48046875 C-29.73735342 25.06037916 -29.73735342 25.06037916 -30 22 C-29.401875 21.7525 -28.80375 21.505 -28.1875 21.25 C-24.88018156 19.36010375 -23.42771313 16.9004487 -21.8125 13.5 C-19.73434918 10.63358507 -17.65405318 9.61487768 -14.46484375 8.18359375 C-10.31731204 6.19198977 -6.4570614 3.6983225 -2.5390625 1.29296875 C-1.70117188 0.86628906 -0.86328125 0.43960938 0 0 Z " fill="#C3C5C8" transform="translate(81,34)"/>
<path d="M0 0 C1.55317294 3.10634588 0.13576834 5.23765803 -0.875 8.5 C-3.43597692 17.25797581 -3.7920606 25.92344511 -4 35 C-4.66 35 -5.32 35 -6 35 C-7.88892061 31.22215878 -7.22829557 26.65639821 -7.25 22.5 C-7.2809375 21.06527344 -7.2809375 21.06527344 -7.3125 19.6015625 C-7.34660374 13.30942209 -7.10844043 6.63203788 -4 1 C-1.89160156 0.22851562 -1.89160156 0.22851562 0 0 Z " fill="#17181A" transform="translate(54,93)"/>
<path d="M0 0 C3.13232785 0.1606322 4.55168932 0.53567822 6.75 2.8125 C9.4024894 7.45435645 9.79406249 12.76640634 9 18 C7.65710298 20.8941746 6.56055796 21.88475647 4 24 C0.875 24.125 0.875 24.125 -2 23 C-5 19.9 -5 19.9 -5 17 C-4.34 17 -3.68 17 -3 17 C-3.020625 15.72125 -3.04125 14.4425 -3.0625 13.125 C-3.125 9.25 -3.125 9.25 -2 7 C-2.66 7 -3.32 7 -4 7 C-2.92598892 4.08482708 -2.22189824 2.22189824 0 0 Z M2 3 C-0.98598843 6.46374658 -2.14442674 9.45146325 -2.1875 14 C-2.20167969 14.680625 -2.21585938 15.36125 -2.23046875 16.0625 C-2.10940411 18.32614132 -2.10940411 18.32614132 0 21 C2.97065509 20.65772428 2.97065509 20.65772428 6 20 C7.72305453 16.55389094 7.379435 12.77537825 7 9 C5.65253476 5.54653852 5.65253476 5.54653852 4 3 C3.34 3 2.68 3 2 3 Z " fill="#141517" transform="translate(229,98)"/>
<path d="M0 0 C0.33 0.66 0.66 1.32 1 2 C2.92638012 2.75243555 2.92638012 2.75243555 5 3 C5.66 2.67 6.32 2.34 7 2 C7.33 3.65 7.66 5.3 8 7 C9.65 7 11.3 7 13 7 C13 8.32 13 9.64 13 11 C13.99 11.33 14.98 11.66 16 12 C16.33 12.66 16.66 13.32 17 14 C19.52733235 14.65555119 19.52733235 14.65555119 22 15 C22 16.32 22 17.64 22 19 C22.66 19.33 23.32 19.66 24 20 C22.35 20.66 20.7 21.32 19 22 C18.60731934 21.60208252 18.21463867 21.20416504 17.81005859 20.79418945 C16.00110339 18.96423697 14.18808863 17.13835686 12.375 15.3125 C11.75753906 14.68666016 11.14007813 14.06082031 10.50390625 13.41601562 C6.82315047 9.71588744 3.06668776 6.27211954 -1 3 C-0.67 2.01 -0.34 1.02 0 0 Z " fill="#C2C5C9" transform="translate(207,34)"/>
<path d="M0 0 C5.02192289 2.44854749 8.27231444 4.626593 11.23046875 9.43359375 C11.62097455 12.24320689 11.47672843 14.57698145 11.23046875 17.43359375 C9.48046875 17.37109375 9.48046875 17.37109375 7.23046875 16.43359375 C6.27844284 14.72651281 5.3322377 13.01523035 4.4453125 11.2734375 C3.03674702 9.14020811 1.6177509 8.1265114 -0.51953125 6.74609375 C-1.59203125 5.98296875 -2.66453125 5.21984375 -3.76953125 4.43359375 C-3.76953125 3.11359375 -3.76953125 1.79359375 -3.76953125 0.43359375 C-1.76953125 -0.56640625 -1.76953125 -0.56640625 0 0 Z " fill="#1C1F23" transform="translate(98.76953125,71.56640625)"/>
<path d="M0 0 C0.33 0 0.66 0 1 0 C1.33 7.92 1.66 15.84 2 24 C2.66 24.33 3.32 24.66 4 25 C4.33 18.07 4.66 11.14 5 4 C5.33 4 5.66 4 6 4 C6.19770851 8.20791855 6.38136206 12.41633815 6.5625 16.625 C6.61857422 17.81480469 6.67464844 19.00460938 6.73242188 20.23046875 C6.80493164 21.96103516 6.80493164 21.96103516 6.87890625 23.7265625 C6.9260376 24.78439941 6.97316895 25.84223633 7.02172852 26.93212891 C6.99956774 30.06103168 6.59691716 32.93301147 6 36 C4.515 36.495 4.515 36.495 3 37 C1.51831055 35.9831543 1.51831055 35.9831543 0 34 C-0.26154123 31.34165372 -0.34939122 28.92314896 -0.29296875 26.26953125 C-0.28872391 25.51911057 -0.28447906 24.76868988 -0.28010559 23.99552917 C-0.2633245 21.60081974 -0.2256749 19.20695466 -0.1875 16.8125 C-0.17245235 15.1881632 -0.15876409 13.5638132 -0.14648438 11.93945312 C-0.11342305 7.95931052 -0.06164594 3.97979837 0 0 Z " fill="#17181E" transform="translate(151,81)"/>
<path d="M0 0 C3.95465848 1.60248009 6.67400729 4.32916765 9.625 7.3125 C10.15134033 7.84302979 10.67768066 8.37355957 11.2199707 8.92016602 C16.69321335 14.54849075 21.4236471 20.63322033 26 27 C26.43038574 27.59619141 26.86077148 28.19238281 27.30419922 28.80664062 C35 39.52426307 35 39.52426307 35 42 C33.19921875 41.83203125 33.19921875 41.83203125 31 41 C29.39453125 38.69921875 29.39453125 38.69921875 27.8125 35.6875 C20.99842768 23.4656639 12.28043787 13.92455054 2.203125 4.33984375 C0 2 0 2 0 0 Z " fill="#0D1012" transform="translate(211,42)"/>
<path d="M0 0 C0.66 0.33 1.32 0.66 2 1 C1.59007812 1.54269531 1.18015625 2.08539063 0.7578125 2.64453125 C0.21898437 3.35996094 -0.31984375 4.07539063 -0.875 4.8125 C-1.40867188 5.52019531 -1.94234375 6.22789062 -2.4921875 6.95703125 C-3.70814781 8.60456297 -4.86416141 10.29624211 -6 12 C-6.99 12.495 -6.99 12.495 -8 13 C-8 12.34 -8 11.68 -8 11 C-17.9 14.465 -17.9 14.465 -28 18 C-28.66 17.34 -29.32 16.68 -30 16 C-28.82824219 15.50371094 -27.65648437 15.00742188 -26.44921875 14.49609375 C-12.27185904 8.82742485 -12.27185904 8.82742485 0 0 Z " fill="#A09F9E" transform="translate(212,221)"/>
<path d="M0 0 C0.99 0 1.98 0 3 0 C3.49306641 0.98226562 3.49306641 0.98226562 3.99609375 1.984375 C9.63355271 12.80096292 16.85875923 22.03348214 25.15234375 30.94140625 C27 33 27 33 29 36 C26 36 26 36 24.30859375 34.70703125 C0 10.09394572 0 10.09394572 0 0 Z " fill="#0F0E0D" transform="translate(38,177)"/>
<path d="M0 0 C0.66 0 1.32 0 2 0 C1.17870539 6.44488128 -2.88810799 10.2213147 -7 15 C-7.7425 15.86625 -8.485 16.7325 -9.25 17.625 C-13.83725032 22.84936842 -18.6313103 27.58216815 -24 32 C-24.66 31.67 -25.32 31.34 -26 31 C-24.71937515 29.2925002 -23.38232443 27.62626404 -22 26 C-21.34 26 -20.68 26 -20 26 C-19.9175 25.38125 -19.835 24.7625 -19.75 24.125 C-19 22 -19 22 -17.1875 21 C-16.465625 20.67 -15.74375 20.34 -15 20 C-10.717848 16.43154 -8.01543385 11.62004774 -5 7 C-3.39691529 4.59317693 -1.76096445 2.29903693 0 0 Z " fill="#434240" transform="translate(238,192)"/>
<path d="M0 0 C0 0.66 0 1.32 0 2 C-1.02609375 2.54914062 -2.0521875 3.09828125 -3.109375 3.6640625 C-6.90940122 5.84287151 -10.05692773 8.39208325 -13.25 11.375 C-14.07600708 12.13925293 -14.07600708 12.13925293 -14.91870117 12.91894531 C-20.99750268 18.70396278 -26.02762383 25.26387517 -31 32 C-31.66 31.01 -32.32 30.02 -33 29 C-11.84541063 0 -11.84541063 0 0 0 Z " fill="#0E1114" transform="translate(82,36)"/>
<path d="M0 0 C-0.33 1.65 -0.66 3.3 -1 5 C-0.34 5.33 0.32 5.66 1 6 C0.835 6.763125 0.67 7.52625 0.5 8.3125 C-0.13107381 11.70452174 -0.09818899 13.70543302 1 17 C-0.65 16.67 -2.3 16.34 -4 16 C-3.34 15.01 -2.68 14.02 -2 13 C-4.97 12.505 -4.97 12.505 -8 12 C-8 11.01 -8 10.02 -8 9 C-8.66 9 -9.32 9 -10 9 C-8.5124715 4.98367305 -4.56813239 0 0 0 Z " fill="#BEC2C3" transform="translate(70,78)"/>
<path d="M0 0 C2.46800047 1.15173355 4.04783565 2.04783565 6 4 C5.67 4.66 5.34 5.32 5 6 C5.56460938 6.23203125 6.12921875 6.4640625 6.7109375 6.703125 C9.58141371 8.32940162 11.41156029 10.30707323 13.625 12.75 C14.78902344 14.01070312 14.78902344 14.01070312 15.9765625 15.296875 C18.10745276 18.14354693 19.07222061 20.58816613 20 24 C19.319375 23.319375 18.63875 22.63875 17.9375 21.9375 C17.47214844 21.47601563 17.00679687 21.01453125 16.52734375 20.5390625 C15.52449843 19.52852272 14.53677825 18.50269926 13.56640625 17.4609375 C7.96968266 11.57111866 1.48884261 6.84955606 -5 2 C-4.34 1.67 -3.68 1.34 -3 1 C-2.34 1.33 -1.68 1.66 -1 2 C-0.67 1.34 -0.34 0.68 0 0 Z " fill="#1E2026" transform="translate(206,38)"/>
<path d="M0 0 C0.66 0 1.32 0 2 0 C1.40165275 4.14298667 -0.00664285 7.18194377 -2.0625 10.8125 C-2.61035156 11.78832031 -3.15820312 12.76414062 -3.72265625 13.76953125 C-4.14417969 14.50558594 -4.56570312 15.24164063 -5 16 C-5.66 15.67 -6.32 15.34 -7 15 C-7.99 17.31 -8.98 19.62 -10 22 C-10.66 22 -11.32 22 -12 22 C-12.33 22.66 -12.66 23.32 -13 24 C-12.43971764 19.07102954 -10.85331704 15.06586674 -8.625 10.6875 C-8.32078125 10.05521484 -8.0165625 9.42292969 -7.703125 8.77148438 C-5.3718931 4.12396437 -5.3718931 4.12396437 -2 3 C-1.34 2.01 -0.68 1.02 0 0 Z " fill="#818183" transform="translate(48,66)"/>
<path d="M0 0 C5.10151526 3.46714093 7.95438046 7.97771446 11.25 13.0625 C11.79140625 13.87783203 12.3328125 14.69316406 12.890625 15.53320312 C16.85432956 21.56298869 16.85432956 21.56298869 18 25 C17.67 25.66 17.34 26.32 17 27 C15 27 15 27 13.4375 25.75 C12 24 12 24 11.625 22.2421875 C10.78619161 19.23296239 9.25869721 16.99158696 7.5625 14.375 C6.94503906 13.41335937 6.32757813 12.45171875 5.69140625 11.4609375 C4.08490879 8.96342762 4.08490879 8.96342762 2 7 C1.28072705 4.68234271 0.6090107 2.34904126 0 0 Z " fill="#848687" transform="translate(224,57)"/>
<path d="M0 0 C0.02717692 2.06242617 0.0464758 4.12495703 0.0625 6.1875 C0.07410156 7.33605469 0.08570313 8.48460938 0.09765625 9.66796875 C0.01192832 12.59300586 -0.32150977 15.16316291 -1 18 C-2.65 17.67 -4.3 17.34 -6 17 C-5.979375 15.906875 -5.95875 14.81375 -5.9375 13.6875 C-5.81455548 10.05615809 -5.81455548 10.05615809 -7 7 C-6.34 7 -5.68 7 -5 7 C-4.67 5.02 -4.34 3.04 -4 1 C-1 0 -1 0 0 0 Z " fill="#949595" transform="translate(195,109)"/>
<path d="M0 0 C0.33 1.32 0.66 2.64 1 4 C0.34 4 -0.32 4 -1 4 C-0.67 4.99 -0.34 5.98 0 7 C-1.32 8.32 -2.64 9.64 -4 11 C-5.32 10.01 -6.64 9.02 -8 8 C-8 11.3 -8 14.6 -8 18 C-8.33 18 -8.66 18 -9 18 C-10.21379503 13.29654425 -10.07202527 8.82569313 -10 4 C-6.7 2.68 -3.4 1.36 0 0 Z " fill="#B1B1B0" transform="translate(79,151)"/>
<path d="M0 0 C0.66 0.66 1.32 1.32 2 2 C1 4 1 4 -1.14453125 4.88671875 C-2.02496094 5.15097656 -2.90539062 5.41523438 -3.8125 5.6875 C-4.68519531 5.95949219 -5.55789062 6.23148438 -6.45703125 6.51171875 C-9.06873834 7.01319861 -10.51716384 6.86233704 -13 6 C-13.33 4.35 -13.66 2.7 -14 1 C-8.93673845 -0.68775385 -5.27305781 -1.28896969 0 0 Z " fill="#DDE2E6" transform="translate(102,17)"/>
<path d="M0 0 C0.33 1.32 0.66 2.64 1 4 C0.50628906 4.39832031 0.01257812 4.79664063 -0.49609375 5.20703125 C-1.13675781 5.73683594 -1.77742188 6.26664063 -2.4375 6.8125 C-3.07558594 7.33457031 -3.71367188 7.85664062 -4.37109375 8.39453125 C-6.2548275 10.00834411 -6.2548275 10.00834411 -7 13 C-7.98747652 14.58379199 -9.0117732 16.14494364 -10.0625 17.6875 C-10.61035156 18.49574219 -11.15820312 19.30398437 -11.72265625 20.13671875 C-12.35494141 21.05904297 -12.35494141 21.05904297 -13 22 C-13.66 21.67 -14.32 21.34 -15 21 C-13.80141472 12.24110756 -6.17099706 5.83337412 0 0 Z " fill="#484A4E" transform="translate(58,47)"/>
<path d="M0 0 C0.92515859 2.4979282 1.07422515 3.75476994 0.29296875 6.3359375 C-1.19483962 9.40145204 -2.98118846 11.45729798 -5.3125 13.9375 C-8.65785657 17.54724766 -11.88958181 21.18722932 -15 25 C-15.99 24.67 -16.98 24.34 -18 24 C-17.25556641 23.19949219 -17.25556641 23.19949219 -16.49609375 22.3828125 C-10.1570366 15.43029821 -4.78237623 8.09988046 0 0 Z " fill="#161513" transform="translate(237,185)"/>
<path d="M0 0 C0.33 0.66 0.66 1.32 1 2 C-0.89332997 6.10221492 -2.80176875 8.30284269 -7 10 C-10.45691275 10.56950787 -13.56030838 10.7274102 -17 10 C-19.35687326 8.19306383 -20.39577957 6.56675269 -22 4 C-21.071875 4.165 -20.14375 4.33 -19.1875 4.5 C-16.04378647 5.07748388 -16.04378647 5.07748388 -13 5 C-11.329375 5.4021875 -11.329375 5.4021875 -9.625 5.8125 C-5.84572372 6.41740149 -5.84572372 6.41740149 -3.125 3.625 C-2.42375 2.75875 -1.7225 1.8925 -1 1 C-0.67 0.67 -0.34 0.34 0 0 Z " fill="#141417" transform="translate(180,133)"/>
<path d="M0 0 C3.69230769 0.69230769 3.69230769 0.69230769 5 2 C5.14115161 4.67058851 5.04247107 7.32432238 5 10 C3.1875 10.625 3.1875 10.625 1 11 C0.01 10.34 -0.98 9.68 -2 9 C-2 9.66 -2 10.32 -2 11 C-2.66 11 -3.32 11 -4 11 C-3.5247412 9.35303396 -3.04468109 7.70745272 -2.5625 6.0625 C-2.29566406 5.14597656 -2.02882812 4.22945313 -1.75390625 3.28515625 C-1 1 -1 1 0 0 Z " fill="#C8CACC" transform="translate(164,61)"/>
<path d="M0 0 C0.66 0.66 1.32 1.32 2 2 C0.75625426 3.60902058 -0.49526899 5.21203107 -1.75 6.8125 C-2.44609375 7.70582031 -3.1421875 8.59914062 -3.859375 9.51953125 C-5.77825964 11.74305633 -7.58099964 13.3600921 -10 15 C-11 14 -11 14 -11.09765625 12.15234375 C-11.06510417 10.1015625 -11.03255208 8.05078125 -11 6 C-8.3333581 4.66667905 -6.83319697 5.32897967 -4 6 C-3.8453125 5.071875 -3.8453125 5.071875 -3.6875 4.125 C-3 2 -3 2 0 0 Z " fill="#ADAAA7" transform="translate(228,195)"/>
<path d="M0 0 C0.99 0.33 1.98 0.66 3 1 C2.835 1.928125 2.67 2.85625 2.5 3.8125 C1.92251612 6.95621353 1.92251612 6.95621353 2 10 C2 10.66 2 11.32 2 12 C-2.455 12.495 -2.455 12.495 -7 13 C-5.51695152 10.03390305 -3.9911452 7.1420493 -2.375 4.25 C-1.92898437 3.45078125 -1.48296875 2.6515625 -1.0234375 1.828125 C-0.68570313 1.22484375 -0.34796875 0.6215625 0 0 Z " fill="#ADAAA8" transform="translate(244,187)"/>
<path d="M0 0 C-0.33 2.31 -0.66 4.62 -1 7 C-3.31 7 -5.62 7 -8 7 C-9.4606285 4.35261084 -10 3.10551666 -10 0 C-6.30581799 -1.231394 -3.7943739 -0.64432764 0 0 Z " fill="#AFAFAE" transform="translate(247,136)"/>
<path d="M0 0 C-0.99 0.33 -1.98 0.66 -3 1 C-1.68 1.66 -0.36 2.32 1 3 C0.34 3.66 -0.32 4.32 -1 5 C-0.01 5.33 0.98 5.66 2 6 C-0.31 6.66 -2.62 7.32 -5 8 C-5 6.68 -5 5.36 -5 4 C-6.98491642 4.26676204 -6.98491642 4.26676204 -9 5 C-9.33 5.99 -9.66 6.98 -10 8 C-10.33 5.69 -10.66 3.38 -11 1 C-3.57142857 -1.42857143 -3.57142857 -1.42857143 0 0 Z " fill="#6F6F6F" transform="translate(234,138)"/>
<path d="M0 0 C1.32 0 2.64 0 4 0 C5.75 2 5.75 2 7 4 C6.01 4 5.02 4 4 4 C4 4.66 4 5.32 4 6 C4.99 6.33 5.98 6.66 7 7 C6.34 7 5.68 7 5 7 C4.87625 7.5775 4.7525 8.155 4.625 8.75 C3.99351176 11.02335767 3.11141809 12.9253529 2 15 C0.89748835 11.69246505 -0.05066101 8.35433109 -1 5 C-2.32 5 -3.64 5 -5 5 C-5 4.34 -5 3.68 -5 3 C-4.360625 2.690625 -3.72125 2.38125 -3.0625 2.0625 C-1.06389179 1.1654837 -1.06389179 1.1654837 0 0 Z " fill="#959594" transform="translate(213,137)"/>
<path d="M0 0 C0.66 0 1.32 0 2 0 C0.87846289 9.01656806 -1.09763515 17.3915295 -4 26 C-6 23 -6 23 -5.390625 19.453125 C-5.02353069 18.04859024 -4.64274996 16.64757776 -4.25 15.25 C-4.06695312 14.5590625 -3.88390625 13.868125 -3.6953125 13.15625 C-2.52054275 8.75499994 -1.26049013 4.37733844 0 0 Z " fill="#0F0F0F" transform="translate(255,147)"/>
<path d="M0 0 C1.2065625 0.0309375 1.2065625 0.0309375 2.4375 0.0625 C3.64022819 2.46795638 3.53821472 4.01246953 3.5 6.6875 C3.49097656 7.50476563 3.48195312 8.32203125 3.47265625 9.1640625 C3.46105469 9.79054688 3.44945312 10.41703125 3.4375 11.0625 C4.0975 11.0625 4.7575 11.0625 5.4375 11.0625 C5.1075 12.0525 4.7775 13.0425 4.4375 14.0625 C2.7875 13.7325 1.1375 13.4025 -0.5625 13.0625 C-0.63597656 11.88880859 -0.63597656 11.88880859 -0.7109375 10.69140625 C-0.78570312 9.67949219 -0.86046875 8.66757813 -0.9375 7.625 C-1.00710937 6.61566406 -1.07671875 5.60632813 -1.1484375 4.56640625 C-1.28507813 3.74011719 -1.42171875 2.91382812 -1.5625 2.0625 C-2.2225 1.7325 -2.8825 1.4025 -3.5625 1.0625 C-2.5625 0.0625 -2.5625 0.0625 0 0 Z " fill="#131415" transform="translate(195.5625,107.9375)"/>
<path d="M0 0 C0.94875 0.350625 1.8975 0.70125 2.875 1.0625 C5.87060172 2.35026777 5.87060172 2.35026777 8 1 C8 1.66 8 2.32 8 3 C9.32 3 10.64 3 12 3 C12.33 2.01 12.66 1.02 13 0 C13 1.32 13 2.64 13 4 C11.68 4 10.36 4 9 4 C8.67 4.99 8.34 5.98 8 7 C5.9375 8.1875 5.9375 8.1875 4 9 C2 6 2 6 2 3 C0.68 3.33 -0.64 3.66 -2 4 C-1.67 5.98 -1.34 7.96 -1 10 C-1.66 9.67 -2.32 9.34 -3 9 C-3.625 5.9375 -3.625 5.9375 -4 3 C-3.01 2.67 -2.02 2.34 -1 2 C-0.67 1.34 -0.34 0.68 0 0 Z " fill="#6D6D6D" transform="translate(180,146)"/>
<path d="M0 0 C0.33 0 0.66 0 1 0 C1.33 3.63 1.66 7.26 2 11 C4.29633824 7.55549263 4.54016485 5.06187717 5 1 C5.33 1 5.66 1 6 1 C5.67 9.91 5.34 18.82 5 28 C4.67 28 4.34 28 4 28 C3.95101562 27.07316406 3.90203125 26.14632812 3.8515625 25.19140625 C3.77679688 23.99386719 3.70203125 22.79632813 3.625 21.5625 C3.55539063 20.36753906 3.48578125 19.17257813 3.4140625 17.94140625 C3.27742188 16.97074219 3.14078125 16.00007813 3 15 C2.34 14.67 1.68 14.34 1 14 C1 16.31 1 18.62 1 21 C0.67 21 0.34 21 0 21 C0 14.07 0 7.14 0 0 Z " fill="#121114" transform="translate(62,118)"/>
<path d="M0 0 C1.9375 1.375 1.9375 1.375 2.875 3.8125 C2.9375 6.375 2.9375 6.375 1.5 8.1875 C0.984375 8.579375 0.46875 8.97125 -0.0625 9.375 C-0.0625 8.385 -0.0625 7.395 -0.0625 6.375 C-0.7225 6.375 -1.3825 6.375 -2.0625 6.375 C-2.0625 5.055 -2.0625 3.735 -2.0625 2.375 C-2.7225 2.375 -3.3825 2.375 -4.0625 2.375 C-4.25585938 3.00148438 -4.44921875 3.62796875 -4.6484375 4.2734375 C-4.90882813 5.09070313 -5.16921875 5.90796875 -5.4375 6.75 C-5.69273437 7.56210938 -5.94796875 8.37421875 -6.2109375 9.2109375 C-7.0625 11.375 -7.0625 11.375 -9.0625 13.375 C-9.7225 13.045 -10.3825 12.715 -11.0625 12.375 C-11.0625 10.065 -11.0625 7.755 -11.0625 5.375 C-10.7325 5.375 -10.4025 5.375 -10.0625 5.375 C-9.7325 7.025 -9.4025 8.675 -9.0625 10.375 C-8.55589844 9.30958984 -8.55589844 9.30958984 -8.0390625 8.22265625 C-7.59304687 7.30355469 -7.14703125 6.38445312 -6.6875 5.4375 C-6.24664062 4.52097656 -5.80578125 3.60445313 -5.3515625 2.66015625 C-3.78366574 -0.11929709 -3.14759631 -0.95381706 0 0 Z " fill="#25272A" transform="translate(210.0625,106.625)"/>
<path d="M0 0 C0.99 0 1.98 0 3 0 C3.66 0.99 4.32 1.98 5 3 C5.99 3 6.98 3 8 3 C8.66 4.65 9.32 6.3 10 8 C9.34 8.66 8.68 9.32 8 10 C7.67 9.34 7.34 8.68 7 8 C6.01 8.33 5.02 8.66 4 9 C3.67 7.02 3.34 5.04 3 3 C2.34 3 1.68 3 1 3 C0.87882813 3.68707031 0.75765625 4.37414062 0.6328125 5.08203125 C0.46523437 5.98308594 0.29765625 6.88414062 0.125 7.8125 C-0.03742188 8.70582031 -0.19984375 9.59914062 -0.3671875 10.51953125 C-1 13 -1 13 -3 16 C-2.88544319 14.08268082 -2.75793742 12.1661325 -2.625 10.25 C-2.55539063 9.18265625 -2.48578125 8.1153125 -2.4140625 7.015625 C-2.0271777 4.19793568 -1.44313834 2.4169634 0 0 Z " fill="#A4A4A3" transform="translate(254,144)"/>
<path d="M0 0 C1.09716797 1.75683594 1.09716797 1.75683594 2 4 C1.49267578 5.92285156 1.49267578 5.92285156 0.4453125 7.890625 C0.07792969 8.59960938 -0.28945313 9.30859375 -0.66796875 10.0390625 C-1.06628906 10.76867187 -1.46460938 11.49828125 -1.875 12.25 C-2.26558594 12.99507812 -2.65617187 13.74015625 -3.05859375 14.5078125 C-4.02486093 16.34607689 -5.01060566 18.17407911 -6 20 C-6.66 19.34 -7.32 18.68 -8 18 C-7.634705 14.21887629 -6.28905108 11.22563623 -4.5625 7.875 C-4.13066406 7.02679688 -3.69882812 6.17859375 -3.25390625 5.3046875 C-2 3 -2 3 0 0 Z " fill="#1A1A1D" transform="translate(42,66)"/>
<path d="M0 0 C5.23175837 -0.38281159 8.37802694 0.78145293 13 3 C13 4.65 13 6.3 13 8 C11.41531323 7.54636829 9.83230076 7.08688548 8.25 6.625 C7.36828125 6.36976562 6.4865625 6.11453125 5.578125 5.8515625 C3.23919428 5.0790066 1.16557438 4.16374324 -1 3 C-0.67 2.01 -0.34 1.02 0 0 Z " fill="#D2D6DA" transform="translate(171,16)"/>
<path d="M0 0 C2.13093906 1.06546953 3.36587557 2.29159719 5 4 C4.67 4.66 4.34 5.32 4 6 C2.68 5.67 1.36 5.34 0 5 C0 5.99 0 6.98 0 8 C-4.455 8.495 -4.455 8.495 -9 9 C-9.33 6.36 -9.66 3.72 -10 1 C-8.35 1 -6.7 1 -5 1 C-5.99 1.33 -6.98 1.66 -8 2 C-8 2.66 -8 3.32 -8 4 C-6.35 3.67 -4.7 3.34 -3 3 C-3.33 3.99 -3.66 4.98 -4 6 C-3.01 6 -2.02 6 -1 6 C-0.67 4.02 -0.34 2.04 0 0 Z " fill="#605F5F" transform="translate(134,158)"/>
<path d="M0 0 C-0.99 0.495 -0.99 0.495 -2 1 C-2 1.66 -2 2.32 -2 3 C-1.01 3.33 -0.02 3.66 1 4 C0.01 4 -0.98 4 -2 4 C-2 4.66 -2 5.32 -2 6 C-0.35 6 1.3 6 3 6 C-0.75 8 -0.75 8 -3 8 C-3 8.66 -3 9.32 -3 10 C-4.98 10.99 -4.98 10.99 -7 12 C-8.125 4.375 -8.125 4.375 -7 1 C-4.53721199 -0.231394 -2.7204945 -0.07159196 0 0 Z " fill="#717071" transform="translate(158,153)"/>
<path d="M0 0 C2 2 2 2 2.125 5.125 C2.08375 6.07375 2.0425 7.0225 2 8 C1.67 8 1.34 8 1 8 C0.731875 9.093125 0.46375 10.18625 0.1875 11.3125 C-0.930763 14.7850009 -1.43744207 15.71827034 -4 18 C-4.02705729 16.22925083 -4.04642195 14.45838289 -4.0625 12.6875 C-4.07410156 11.70136719 -4.08570313 10.71523437 -4.09765625 9.69921875 C-4 7 -4 7 -3 4 C-2.34 3.67 -1.68 3.34 -1 3 C-0.67 2.01 -0.34 1.02 0 0 Z " fill="#2B292A" transform="translate(67,112)"/>
<path d="M0 0 C1.99172758 5.97518273 -1.28848322 12.02597135 -3.90234375 17.43359375 C-5 19 -5 19 -8 20 C-8.34833144 15.12335991 -7.41685712 12.22949995 -5 8 C-4.34 8 -3.68 8 -3 8 C-2.01 5.36 -1.02 2.72 0 0 Z " fill="#545354" transform="translate(247,167)"/>
<path d="M0 0 C0.33 0 0.66 0 1 0 C1.103125 0.763125 1.20625 1.52625 1.3125 2.3125 C1.7520119 5.01556765 1.7520119 5.01556765 3.5 6.4375 C5.67409173 8.70217889 5.66189749 10.95707737 6 14 C2.62537285 13.45276317 0.91765 12.9451 -2 11 C-1.835 10.4225 -1.67 9.845 -1.5 9.25 C-0.85537969 6.73335631 -0.85537969 6.73335631 -1 3 C-0.67 2.01 -0.34 1.02 0 0 Z " fill="#24232A" transform="translate(159,125)"/>
<path d="M0 0 C0.33 1.32 0.66 2.64 1 4 C1.33 4 1.66 4 2 4 C2 5.65 2 7.3 2 9 C-1.13349732 10.04449911 -1.98968256 9.93423645 -5 9 C-5.33 6.69 -5.66 4.38 -6 2 C-3 0 -3 0 0 0 Z " fill="#B4B6B6" transform="translate(234,107)"/>
<path d="M0 0 C4.75411219 2.4490881 8.72692981 5.77459583 12 10 C12.4375 12.9375 12.4375 12.9375 12 15 C11.54625 14.34 11.0925 13.68 10.625 13 C10.08875 12.34 9.5525 11.68 9 11 C6.9254644 10.8509288 6.9254644 10.8509288 5 12 C5 10.02 5 8.04 5 6 C4.01 6 3.02 6 2 6 C-0.1875 5 -0.1875 5 -2 4 C-1.34 2.68 -0.68 1.36 0 0 Z " fill="#C0C4C5" transform="translate(211,48)"/>
<path d="M0 0 C0 0.66 0 1.32 0 2 C-5.36190101 4.61407872 -10.03435204 6.49228528 -16 7 C-15.67 5.68 -15.34 4.36 -15 3 C-13.25183142 2.49363393 -11.50137737 1.99515381 -9.75 1.5 C-8.77546875 1.2215625 -7.8009375 0.943125 -6.796875 0.65625 C-4 0 -4 0 0 0 Z " fill="#282A2F" transform="translate(110,22)"/>
<path d="M0 0 C0.99 0.33 1.98 0.66 3 1 C3 1.66 3 2.32 3 3 C2.34 3 1.68 3 1 3 C0.67 3.99 0.34 4.98 0 6 C-1.32900521 6.35019144 -2.66323619 6.68070169 -4 7 C-6.08863559 8.51193194 -6.08863559 8.51193194 -8.0625 10.375 C-8.73410156 10.98085937 -9.40570313 11.58671875 -10.09765625 12.2109375 C-11.30626737 13.34757794 -12.48544068 14.51702357 -13.62109375 15.7265625 C-15 17 -15 17 -17 17 C-15.77190641 13.31571923 -14.37551018 12.50879471 -11.3125 10.1875 C-7.22253232 7.01293398 -3.56271199 3.75022314 0 0 Z " fill="#B1AEAC" transform="translate(228,210)"/>
<path d="M0 0 C0.33 0 0.66 0 1 0 C1.33 6.93 1.66 13.86 2 21 C2.99 21.33 3.98 21.66 5 22 C4.505 22.8971875 4.505 22.8971875 4 23.8125 C2.79212012 26.05386471 2.79212012 26.05386471 3 29 C1.35 29 -0.3 29 -2 29 C-1.505 27.515 -1.505 27.515 -1 26 C-0.85013589 24.0093556 -0.75171962 22.01464609 -0.68359375 20.01953125 C-0.62075195 18.27446289 -0.62075195 18.27446289 -0.55664062 16.49414062 C-0.51732422 15.27919922 -0.47800781 14.06425781 -0.4375 12.8125 C-0.39431641 11.58595703 -0.35113281 10.35941406 -0.30664062 9.09570312 C-0.2004691 6.06391619 -0.09842048 3.03204685 0 0 Z " fill="#A8A7A5" transform="translate(74,163)"/>
<path d="M0 0 C0.33 0 0.66 0 1 0 C1.03758423 1.02939697 1.03758423 1.02939697 1.07592773 2.07958984 C1.19171427 5.17825817 1.31451885 8.27660923 1.4375 11.375 C1.47681641 12.45523438 1.51613281 13.53546875 1.55664062 14.6484375 C1.59853516 15.6796875 1.64042969 16.7109375 1.68359375 17.7734375 C1.72025146 18.72653809 1.75690918 19.67963867 1.79467773 20.66162109 C1.85763465 23.02132349 1.85763465 23.02132349 3 25 C6.36720387 23.60667426 7.9859524 22.0210714 10 19 C9.64505955 21.62655933 9.27538036 23.57968261 7.8125 25.8125 C5.1218647 27.57533002 3.13475017 27.40018087 0 27 C-0.66 26.01 -1.32 25.02 -2 24 C-1.67 23.67 -1.34 23.34 -1 23 C-0.84259395 21.29436222 -0.74906608 19.58272756 -0.68359375 17.87109375 C-0.64169922 16.83662109 -0.59980469 15.80214844 -0.55664062 14.73632812 C-0.51732422 13.64771484 -0.47800781 12.55910156 -0.4375 11.4375 C-0.37272461 9.7987793 -0.37272461 9.7987793 -0.30664062 8.12695312 C-0.20017932 5.41810436 -0.09816484 2.70916008 0 0 Z " fill="#0D0D10" transform="translate(142,117)"/>
<path d="M0 0 C0 0.99 0 1.98 0 3 C-0.969375 3.61875 -1.93875 4.2375 -2.9375 4.875 C-6.20679608 6.68218389 -6.20679608 6.68218389 -6.875 9.75 C-6.91625 10.4925 -6.9575 11.235 -7 12 C-7.99 12.33 -8.98 12.66 -10 13 C-10.33 13.99 -10.66 14.98 -11 16 C-11.66 14.35 -12.32 12.7 -13 11 C-11.59419724 9.34487752 -10.17493734 7.70117794 -8.75 6.0625 C-7.96109375 5.14597656 -7.1721875 4.22945312 -6.359375 3.28515625 C-4.08748967 1.08473751 -3.07680978 0.33167445 0 0 Z " fill="#C4C8CB" transform="translate(70,48)"/>
<path d="M0 0 C2 0 2 0 4.5 2.375 C5.325 3.24125 6.15 4.1075 7 5 C7.66 5.66 8.32 6.32 9 7 C9.2475 7.721875 9.495 8.44375 9.75 9.1875 C11.47762796 13.0746629 14.14553175 15.88521861 17 19 C9.60363599 15.7548247 4.25963312 8.65567675 0 2 C0 1.34 0 0.68 0 0 Z " fill="#8E8D8C" transform="translate(52,194)"/>
<path d="M0 0 C1.984375 1.11328125 1.984375 1.11328125 4 3 C4.390625 5.91796875 4.390625 5.91796875 4.25 9.1875 C4.21390625 10.27417969 4.1778125 11.36085937 4.140625 12.48046875 C4.09421875 13.31191406 4.0478125 14.14335937 4 15 C3.01 15.33 2.02 15.66 1 16 C-0.06723961 12.53777385 -0.10173486 9.35960734 -0.0625 5.75 C-0.04896484 4.13351563 -0.04896484 4.13351563 -0.03515625 2.484375 C-0.02355469 1.66453125 -0.01195312 0.8446875 0 0 Z " fill="#1B1B20" transform="translate(138,125)"/>
<path d="M0 0 C0.66 0.33 1.32 0.66 2 1 C-1.10244343 6.80022033 -5.02617963 9.36016036 -11 12 C-12.32377305 12.36947775 -13.65533937 12.71578764 -15 13 C-12.14469286 9.11814196 -9.1867866 6.45262392 -5.25 3.6875 C-4.26515625 2.99011719 -3.2803125 2.29273438 -2.265625 1.57421875 C-1.51796875 1.05472656 -0.7703125 0.53523438 0 0 Z " fill="#6C6E71" transform="translate(76,32)"/>
<path d="M0 0 C0.33 0 0.66 0 1 0 C1 2.97 1 5.94 1 9 C1.66 9.33 2.32 9.66 3 10 C2.34 10 1.68 10 1 10 C1.66 12.64 2.32 15.28 3 18 C2.34 18.33 1.68 18.66 1 19 C0.5316735 21.58605332 0.5316735 21.58605332 0.375 24.5625 C0.30023438 25.57441406 0.22546875 26.58632812 0.1484375 27.62890625 C0.09945312 28.41136719 0.05046875 29.19382812 0 30 C-0.66 30 -1.32 30 -2 30 C-2.11097627 23.23738351 -1.69258682 16.66214361 -1 9.9375 C-0.90460938 8.97650391 -0.80921875 8.01550781 -0.7109375 7.02539062 C-0.4778808 4.68317077 -0.24083651 2.34143045 0 0 Z " fill="#C7C8CA" transform="translate(171,63)"/>
<path d="M0 0 C0.66 0 1.32 0 2 0 C4.32653061 7.34693878 4.32653061 7.34693878 2.75 10.5 C1 12 1 12 -1 12 C-1.66666667 10 -2.33333333 8 -3 6 C-3.33 5.34 -3.66 4.68 -4 4 C-2.66666667 2.66666667 -1.33333333 1.33333333 0 0 Z " fill="#B0B0B0" transform="translate(235,135)"/>
<path d="M0 0 C1.9375 0.375 1.9375 0.375 4 1 C4.33 1.66 4.66 2.32 5 3 C4.67 3.99 4.34 4.98 4 6 C3.34 6 2.68 6 2 6 C2 6.66 2 7.32 2 8 C1.34 8 0.68 8 0 8 C0 8.66 0 9.32 0 10 C-0.99 10.33 -1.98 10.66 -3 11 C-3.33 9.02 -3.66 7.04 -4 5 C-2.68 4.34 -1.36 3.68 0 3 C0 2.01 0 1.02 0 0 Z " fill="#2C2F34" transform="translate(157,64)"/>
<path d="M0 0 C1.86323318 0.25288812 3.71708432 0.57690153 5.5625 0.9375 C6.57441406 1.13214844 7.58632812 1.32679688 8.62890625 1.52734375 C9.80259766 1.76130859 9.80259766 1.76130859 11 2 C10.67 2.99 10.34 3.98 10 5 C3.375 6.125 3.375 6.125 0 5 C-0.75 3 -0.75 3 -1 1 C-0.67 0.67 -0.34 0.34 0 0 Z " fill="#B0AEAC" transform="translate(111,242)"/>
<path d="M0 0 C0 0.99 0 1.98 0 3 C-0.721875 3.24878906 -1.44375 3.49757812 -2.1875 3.75390625 C-5.2689507 5.1191601 -7.42267997 6.77496741 -10 8.9375 C-13.19443052 11.60784426 -16.28105399 14.09655297 -20 16 C-20.66 15.67 -21.32 15.34 -22 15 C-21.27554688 14.49210938 -20.55109375 13.98421875 -19.8046875 13.4609375 C-13.36076541 8.92734523 -13.36076541 8.92734523 -7.625 3.5625 C-4.93620427 0.93772321 -3.69027565 0.21707504 0 0 Z " fill="#989795" transform="translate(225,209)"/>
<path d="M0 0 C1.65 0 3.3 0 5 0 C4.835 0.928125 4.67 1.85625 4.5 2.8125 C3.92251612 5.95621353 3.92251612 5.95621353 4 9 C3.34 8.67 2.68 8.34 2 8 C1.67 8.66 1.34 9.32 1 10 C0.01 9.01 -0.98 8.02 -2 7 C-1.34 4.69 -0.68 2.38 0 0 Z " fill="#ABAAA7" transform="translate(250,174)"/>
<path d="M0 0 C1.32 0.66 2.64 1.32 4 2 C4.042721 3.66611905 4.04063832 5.33382885 4 7 C3 8 3 8 0.4375 8.0625 C-0.366875 8.041875 -1.17125 8.02125 -2 8 C-2.33 6.02 -2.66 4.04 -3 2 C-2.01 1.34 -1.02 0.68 0 0 Z " fill="#383838" transform="translate(210,141)"/>
<path d="M0 0 C0.99 0.33 1.98 0.66 3 1 C2.93999894 2.6260287 2.8512115 4.25101549 2.75 5.875 C2.70359375 6.77992187 2.6571875 7.68484375 2.609375 8.6171875 C2.40828125 9.40351562 2.2071875 10.18984375 2 11 C0.02 11.99 0.02 11.99 -2 13 C-2 9.04 -2 5.08 -2 1 C-1.34 0.67 -0.68 0.34 0 0 Z " fill="#292B2F" transform="translate(111,90)"/>
<path d="M0 0 C3.03346714 1.58895898 5.81796223 3.41660156 8.625 5.375 C7.635 5.87 7.635 5.87 6.625 6.375 C5.635 6.045 4.645 5.715 3.625 5.375 C2.635 5.375 1.645 5.375 0.625 5.375 C-2.5 4.5 -2.5 4.5 -5.375 3.375 C-5.705 2.715 -6.035 2.055 -6.375 1.375 C-3.92089461 -0.26107026 -2.9096065 -0.76568592 0 0 Z " fill="#C8CCCF" transform="translate(191.375,33.625)"/>
<path d="M0 0 C-0.33 1.65 -0.66 3.3 -1 5 C-0.34 5.33 0.32 5.66 1 6 C0.01 7.485 0.01 7.485 -1 9 C-1.99 8.01 -2.98 7.02 -4 6 C-4.433125 6.495 -4.86625 6.99 -5.3125 7.5 C-7 9 -7 9 -10 9 C-8.5124715 4.98367305 -4.56813239 0 0 0 Z " fill="#C4C7C9" transform="translate(70,78)"/>
<path d="M0 0 C2.04136395 -0.05451714 4.08315856 -0.09302485 6.125 -0.125 C7.83042969 -0.15980469 7.83042969 -0.15980469 9.5703125 -0.1953125 C13.05757767 0.00327891 15.7553862 0.7475199 19 2 C18.01 2.495 18.01 2.495 17 3 C17 3.99 17 4.98 17 6 C14.6568787 5.74438677 12.32156597 5.40729228 10 5 C9.67 4.34 9.34 3.68 9 3 C9.66 3 10.32 3 11 3 C11 2.34 11 1.68 11 1 C7.37 1 3.74 1 0 1 C0 0.67 0 0.34 0 0 Z " fill="#14161D" transform="translate(78,69)"/>
<path d="M0 0 C3.34098676 2.22732451 3.90203779 3.24862913 5 7 C4.67 7.99 4.34 8.98 4 10 C2.02 10 0.04 10 -2 10 C-2.17942163 6.05272412 -2.09350689 3.4019487 0 0 Z " fill="#B1B1B2" transform="translate(154,132)"/>
<path d="M0 0 C3 1 3 1 4.1875 3.0625 C4.455625 3.701875 4.72375 4.34125 5 5 C3.56705502 5.84114171 2.12845595 6.67265687 0.6875 7.5 C-0.51326172 8.19609375 -0.51326172 8.19609375 -1.73828125 8.90625 C-4 10 -4 10 -7 10 C-6.67 9.01 -6.34 8.02 -6 7 C-5.34 7 -4.68 7 -4 7 C-4 6.34 -4 5.68 -4 5 C-3.34 5 -2.68 5 -2 5 C-1.34 3.35 -0.68 1.7 0 0 Z " fill="#BEC2C6" transform="translate(66,67)"/>
<path d="M0 0 C1.67542976 0.28604898 3.34385343 0.61781233 5 1 C5.33 3.31 5.66 5.62 6 8 C4.35 8 2.7 8 1 8 C0.34 5.69 -0.32 3.38 -1 1 C-0.67 0.67 -0.34 0.34 0 0 Z " fill="#686767" transform="translate(109,162)"/>
<path d="M0 0 C0.33 10.56 0.66 21.12 1 32 C-0.90446111 28.19107779 -1.27823262 26.65302151 -1.4140625 22.578125 C-1.45273438 21.55332031 -1.49140625 20.52851562 -1.53125 19.47265625 C-1.57765625 17.87744141 -1.57765625 17.87744141 -1.625 16.25 C-1.66367188 15.17105469 -1.70234375 14.09210938 -1.7421875 12.98046875 C-1.83634631 10.32048225 -1.92197387 7.6605006 -2 5 C-2.66 4.67 -3.32 4.34 -4 4 C-4 3.01 -4 2.02 -4 1 C-1 0 -1 0 0 0 Z " fill="#C8C9CC" transform="translate(150,84)"/>
<path d="M0 0 C4.49316995 4.09671378 7.97813973 8.71434062 11 14 C11 14.66 11 15.32 11 16 C9.234375 15.8671875 9.234375 15.8671875 7 15 C5.078125 12.3828125 5.078125 12.3828125 3.25 9.125 C2.63640625 8.05507812 2.0228125 6.98515625 1.390625 5.8828125 C0 3 0 3 0 0 Z " fill="#151617" transform="translate(235,68)"/>
<path d="M0 0 C3.82825694 0.0274427 3.82825694 0.0274427 6.125 1.75 C6.62 2.4925 6.62 2.4925 7.125 3.25 C5.475 3.25 3.825 3.25 2.125 3.25 C2.125 4.24 2.125 5.23 2.125 6.25 C-0.845 5.755 -0.845 5.755 -3.875 5.25 C-4.4375 3.3125 -4.4375 3.3125 -4.875 1.25 C-3.875 0.25 -3.875 0.25 0 0 Z " fill="#B1B1B1" transform="translate(205.875,136.75)"/>
<path d="M0 0 C-1.33332095 3.99996286 -3.4957827 4.83782337 -7 7 C-7 6.34 -7 5.68 -7 5 C-8.32 4.67 -9.64 4.34 -11 4 C-7.39482939 0.00856111 -5.29679003 -1.76559668 0 0 Z " fill="#25272C" transform="translate(69,76)"/>
<path d="M0 0 C2.34680297 0.61757973 4.68152126 1.2833793 7 2 C7.66 1.67 8.32 1.34 9 1 C9.99 1.66 10.98 2.32 12 3 C11 5 11 5 9 5.875 C4.45262548 6.06447394 0.99299857 4.02694699 -3 2 C-2.01 1.34 -1.02 0.68 0 0 Z " fill="#171B1F" transform="translate(185,28)"/>
<path d="M0 0 C0 3.36306513 -0.59180073 4.30524101 -2.375 7.0625 C-2.81585938 7.75472656 -3.25671875 8.44695312 -3.7109375 9.16015625 C-5.87274738 12.24564853 -7.36137538 13.27227508 -11 14 C-9.42219077 10.28954753 -7.09296752 7.70093616 -4.375 4.75 C-3.55773437 3.85796875 -2.74046875 2.9659375 -1.8984375 2.046875 C-1.27195313 1.37140625 -0.64546875 0.6959375 0 0 Z " fill="#AFAEAC" transform="translate(233,197)"/>
<path d="M0 0 C1.32 0.33 2.64 0.66 4 1 C4.33 2.32 4.66 3.64 5 5 C-1.75 7 -1.75 7 -4 7 C-4.33 7.66 -4.66 8.32 -5 9 C-5 4.61031544 -2.87194899 3.23094261 0 0 Z " fill="#ADAAA7" transform="translate(235,201)"/>
<path d="M0 0 C0.66 0 1.32 0 2 0 C2.69906942 1.59915881 3.38389468 3.20455045 4.0625 4.8125 C4.63677734 6.15248047 4.63677734 6.15248047 5.22265625 7.51953125 C6 10 6 10 5 13 C3.96387729 11.59447701 2.94655075 10.17508306 1.9375 8.75 C1.36902344 7.96109375 0.80054688 7.1721875 0.21484375 6.359375 C-1 4 -1 4 -0.68359375 1.703125 C-0.45800781 1.14109375 -0.23242188 0.5790625 0 0 Z " fill="#888886" transform="translate(43,177)"/>
<path d="M0 0 C0.33 0 0.66 0 1 0 C1 3.96 1 7.92 1 12 C1.66 12 2.32 12 3 12 C5 14 5 14 6 17 C5.67 17.66 5.34 18.32 5 19 C3.0625 18.6875 3.0625 18.6875 1 18 C-0.2062252 14.38132441 -0.10816918 11.07493749 -0.0625 7.3125 C-0.05798828 6.61060547 -0.05347656 5.90871094 -0.04882812 5.18554688 C-0.03706927 3.45699462 -0.01913454 1.72848635 0 0 Z " fill="#9F9FA1" transform="translate(126,120)"/>
<path d="M0 0 C0.66 0.66 1.32 1.32 2 2 C2.66 1.67 3.32 1.34 4 1 C3.67 3.64 3.34 6.28 3 9 C2.34 8.67 1.68 8.34 1 8 C0.34 9.98 -0.32 11.96 -1 14 C-1.33 14 -1.66 14 -2 14 C-2.3690205 4.58997722 -2.3690205 4.58997722 0 0 Z " fill="#636566" transform="translate(32,97)"/>
<path d="M0 0 C0.66 0.33 1.32 0.66 2 1 C-3.54288989 7.11464931 -9.55759063 12.30385393 -17 16 C-17.66 15.67 -18.32 15.34 -19 15 C-18.53102295 14.65219482 -18.0620459 14.30438965 -17.57885742 13.94604492 C-15.44650114 12.36240831 -13.31698227 10.77499882 -11.1875 9.1875 C-10.08051758 8.36668945 -10.08051758 8.36668945 -8.95117188 7.52929688 C-8.23896484 6.99755859 -7.52675781 6.46582031 -6.79296875 5.91796875 C-6.1383667 5.43094482 -5.48376465 4.9439209 -4.80932617 4.44213867 C-3.07479367 3.05961493 -1.53355413 1.59995972 0 0 Z " fill="#0F0F0D" transform="translate(218,210)"/>
<path d="M0 0 C2.35981813 0.93578995 4.69631264 1.93347808 7 3 C6.34 3.66 5.68 4.32 5 5 C5.33 5.66 5.66 6.32 6 7 C3.69 6.67 1.38 6.34 -1 6 C-1.33 4.35 -1.66 2.7 -2 1 C-1.34 0.67 -0.68 0.34 0 0 Z " fill="#262A2D" transform="translate(97,71)"/>
<path d="M0 0 C3.3 0.99 6.6 1.98 10 3 C10 3.99 10 4.98 10 6 C7.83032311 6.95465783 6.43671207 7.14401212 4.17578125 6.3984375 C2.4315257 5.64129615 0.71372869 4.82390802 -1 4 C-0.67 2.68 -0.34 1.36 0 0 Z " fill="#1E1D1E" transform="translate(101,231)"/>
<path d="M0 0 C4.59306496 1.4859916 7.43569245 3.85014682 11 7 C10.01 7.66 9.02 8.32 8 9 C7.67 8.34 7.34 7.68 7 7 C3.97065509 6.34227572 3.97065509 6.34227572 1 6 C0.67 4.02 0.34 2.04 0 0 Z " fill="#C7CBCE" transform="translate(200,40)"/>
<path d="M0 0 C3 3.625 3 3.625 3 7 C1.68 7.33 0.36 7.66 -1 8 C-1 12.62 -1 17.24 -1 22 C-1.33 22 -1.66 22 -2 22 C-2.33 16.39 -2.66 10.78 -3 5 C-2.01 5.33 -1.02 5.66 0 6 C0 4.02 0 2.04 0 0 Z " fill="#101217" transform="translate(110,83)"/>
<path d="M0 0 C1.12758089 3.38274266 0.81750262 4.76778223 0.0625 8.1875 C-0.13214844 9.08855469 -0.32679688 9.98960938 -0.52734375 10.91796875 C-0.68332031 11.60503906 -0.83929688 12.29210937 -1 13 C-1.33 13 -1.66 13 -2 13 C-2.12375 12.030625 -2.2475 11.06125 -2.375 10.0625 C-2.684375 8.5465625 -2.684375 8.5465625 -3 7 C-3.66 6.67 -4.32 6.34 -5 6 C-5.33 6.99 -5.66 7.98 -6 9 C-6.93065133 6.39417629 -7.14917407 5.35801776 -6.0625 2.75 C-5.711875 2.1725 -5.36125 1.595 -5 1 C-4.67 1.99 -4.34 2.98 -4 4 C-3.34 4 -2.68 4 -2 4 C-2 3.34 -2 2.68 -2 2 C-1.34 2 -0.68 2 0 2 C0 1.34 0 0.68 0 0 Z " fill="#13161B" transform="translate(159,70)"/>
<path d="M0 0 C-1.67923025 3.80133442 -4.11462834 6.97082702 -6.625 10.25 C-7.04523437 10.80429688 -7.46546875 11.35859375 -7.8984375 11.9296875 C-8.92938719 13.28866663 -9.96429911 14.64463835 -11 16 C-11.33 15.34 -11.66 14.68 -12 14 C-11.4946875 13.31292969 -10.989375 12.62585938 -10.46875 11.91796875 C-9.8190625 11.01691406 -9.169375 10.11585937 -8.5 9.1875 C-7.8503125 8.29417969 -7.200625 7.40085937 -6.53125 6.48046875 C-4.73735342 4.06037916 -4.73735342 4.06037916 -5 1 C-2 0 -2 0 0 0 Z " fill="#C1C3C6" transform="translate(56,55)"/>
<path d="M0 0 C10.55808656 0.77904328 10.55808656 0.77904328 15 3 C14.67 3.99 14.34 4.98 14 6 C13.01 6 12.02 6 11 6 C10.67 5.34 10.34 4.68 10 4 C8.68225804 3.60955794 7.34332728 3.29044914 6 3 C3.99617991 2.34490497 1.99541868 1.68025637 0 1 C0 0.67 0 0.34 0 0 Z " fill="#D6D9DE" transform="translate(160,24)"/>
<path d="M0 0 C0.66 0 1.32 0 2 0 C0.72210402 5.96351455 -2.33716394 8.48417174 -7 12 C-7.66 11.67 -8.32 11.34 -9 11 C-7.71937515 9.2925002 -6.38232443 7.62626404 -5 6 C-4.34 6 -3.68 6 -3 6 C-2.814375 5.071875 -2.814375 5.071875 -2.625 4.125 C-2 2 -2 2 0 0 Z " fill="#605F5D" transform="translate(221,212)"/>
<path d="M0 0 C3.3 0.33 6.6 0.66 10 1 C10.33 2.65 10.66 4.3 11 6 C9.234375 6.6796875 9.234375 6.6796875 7 7 C5.078125 5.8203125 5.078125 5.8203125 3.25 4.125 C2.63640625 3.57070312 2.0228125 3.01640625 1.390625 2.4453125 C0 1 0 1 0 0 Z " fill="#B0AEAB" transform="translate(69,210)"/>
<path d="M0 0 C-0.495 0.45375 -0.99 0.9075 -1.5 1.375 C-3.22609337 2.87635519 -3.22609337 2.87635519 -3 5 C-3.66 5 -4.32 5 -5 5 C-5 5.66 -5 6.32 -5 7 C-5.66 7 -6.32 7 -7 7 C-7 6.34 -7 5.68 -7 5 C-7.66 5 -8.32 5 -9 5 C-9.33 3.68 -9.66 2.36 -10 1 C-3.71428571 -1.42857143 -3.71428571 -1.42857143 0 0 Z " fill="#A7A6A5" transform="translate(181,239)"/>
<path d="M0 0 C1.1875 3.0625 1.1875 3.0625 2 6 C0.02 5.34 -1.96 4.68 -4 4 C-4.33 4.99 -4.66 5.98 -5 7 C-5.33 4.69 -5.66 2.38 -6 0 C-3 -1 -3 -1 0 0 Z " fill="#5A5A5A" transform="translate(122,161)"/>
<path d="M0 0 C0.45375 0.474375 0.9075 0.94875 1.375 1.4375 C2.93258204 3.09027808 2.93258204 3.09027808 5 4 C3.35 5.32 1.7 6.64 0 8 C-3.875 5.25 -3.875 5.25 -5 3 C-3.35 2.01 -1.7 1.02 0 0 Z " fill="#AEAFB0" transform="translate(235,119)"/>
<path d="M0 0 C0.9590625 0.00773437 1.918125 0.01546875 2.90625 0.0234375 C3.8653125 0.01570313 4.824375 0.00796875 5.8125 0 C8.40625 0.3984375 8.40625 0.3984375 11.40625 3.3984375 C5.79625 3.3984375 0.18625 3.3984375 -5.59375 3.3984375 C-2.59375 0.3984375 -2.59375 0.3984375 0 0 Z " fill="#C3C7CB" transform="translate(81.59375,65.6015625)"/>
<path d="M0 0 C2.0625 0.4375 2.0625 0.4375 4 1 C4.6875 2.75 4.6875 2.75 5 5 C3.5625 7.25 3.5625 7.25 2 9 C1.34 7.68 0.68 6.36 0 5 C-0.99 5.495 -0.99 5.495 -2 6 C-1.125 1.125 -1.125 1.125 0 0 Z " fill="#ABABAA" transform="translate(137,156)"/>
<path d="M0 0 C1.32 0 2.64 0 4 0 C5.00772958 3.1959424 5.19442012 4.57177563 3.78515625 7.67578125 C3.21667969 8.54589844 2.64820313 9.41601562 2.0625 10.3125 C1.49660156 11.19550781 0.93070313 12.07851562 0.34765625 12.98828125 C-0.09707031 13.65214844 -0.54179687 14.31601563 -1 15 C-1.66 14.34 -2.32 13.68 -3 13 C-2.34 12.29875 -1.68 11.5975 -1 10.875 C1.32030013 7.53956856 1.44143161 5.97288453 1 2 C0.67 1.34 0.34 0.68 0 0 Z " fill="#949393" transform="translate(236,183)"/>
<path d="M0 0 C4.68112386 0.86124573 7.12660197 3.32374076 10 7 C11.375 10.375 11.375 10.375 12 13 C10.85872377 11.85872377 9.71776264 10.71713121 8.578125 9.57421875 C7.42694314 8.42588635 6.26987213 7.28344889 5.109375 6.14453125 C4.47515625 5.51933594 3.8409375 4.89414062 3.1875 4.25 C2.58292969 3.65703125 1.97835937 3.0640625 1.35546875 2.453125 C0 1 0 1 0 0 Z " fill="#424547" transform="translate(214,49)"/>
<path d="M0 0 C0.99 0 1.98 0 3 0 C4.33333333 2.66666667 5.66666667 5.33333333 7 8 C2.25 7.25 2.25 7.25 0 5 C-0.125 2.375 -0.125 2.375 0 0 Z " fill="#121316" transform="translate(209,113)"/>
<path d="M0 0 C6.34287476 2.01818742 10.17640499 3.33053154 14 9 C14.75 11.8125 14.75 11.8125 15 14 C13.0190669 12.12332654 11.42011323 10.24292561 9.75 8.0625 C6.97642717 4.66126848 3.88599125 2.98109358 0 1 C0 0.67 0 0.34 0 0 Z " fill="#C6CACE" transform="translate(97,70)"/>
<path d="M0 0 C4.29 0.33 8.58 0.66 13 1 C13 1.66 13 2.32 13 3 C6.565 3.495 6.565 3.495 0 4 C-0.33 3.34 -0.66 2.68 -1 2 C-0.67 1.34 -0.34 0.68 0 0 Z " fill="#2B2E33" transform="translate(76,69)"/>
<path d="M0 0 C3.8063457 0.67170806 7.35206816 1.72746564 11 3 C11 3.66 11 4.32 11 5 C11.66 5 12.32 5 13 5 C13.33 5.99 13.66 6.98 14 8 C10.51329166 6.8905928 7.22515763 5.73662334 4 4 C4 3.34 4 2.68 4 2 C2.68 1.34 1.36 0.68 0 0 Z " fill="#56595D" transform="translate(179,23)"/>
<path d="M0 0 C0.66 0.33 1.32 0.66 2 1 C1.01 1.33 0.02 1.66 -1 2 C0.32 2.66 1.64 3.32 3 4 C2.67 4.33 2.34 4.66 2 5 C2.66 5.66 3.32 6.32 4 7 C2.35 7.33 0.7 7.66 -1 8 C-2.4606285 5.35261084 -3 4.10551666 -3 1 C-2.01 0.67 -1.02 0.34 0 0 Z " fill="#595958" transform="translate(240,135)"/>
<path d="M0 0 C0.45375 0.474375 0.9075 0.94875 1.375 1.4375 C2.93258204 3.09027808 2.93258204 3.09027808 5 4 C4.34 5.32 3.68 6.64 3 8 C0.525 7.01 0.525 7.01 -2 6 C-2 6.66 -2 7.32 -2 8 C-2.66 7.67 -3.32 7.34 -4 7 C-2.68 4.69 -1.36 2.38 0 0 Z " fill="#1A191E" transform="translate(103,119)"/>
<path d="M0 0 C4 0 4 0 7 1 C6.67 2.32 6.34 3.64 6 5 C6.99 5.33 7.98 5.66 9 6 C8.01 6.495 8.01 6.495 7 7 C5.0546875 6.22265625 5.0546875 6.22265625 2.875 5.0625 C2.15054688 4.68222656 1.42609375 4.30195313 0.6796875 3.91015625 C0.12539062 3.60980469 -0.42890625 3.30945313 -1 3 C-0.67 2.01 -0.34 1.02 0 0 Z " fill="#CACFD2" transform="translate(191,25)"/>
<path d="M0 0 C4.8333472 -0.08333357 9.23692563 0.04738513 14 1 C14 1.33 14 1.66 14 2 C9.38 2.33 4.76 2.66 0 3 C0 2.01 0 1.02 0 0 Z " fill="#0C0A0B" transform="translate(154,239)"/>
<path d="M0 0 C0.66 0 1.32 0 2 0 C1.58578031 4.83256305 -0.46413986 6.82679218 -4 10 C-4.33 9.01 -4.66 8.02 -5 7 C-4.07421875 5.17578125 -4.07421875 5.17578125 -2.6875 3.3125 C-2.23761719 2.68988281 -1.78773438 2.06726563 -1.32421875 1.42578125 C-0.88722656 0.95527344 -0.45023438 0.48476562 0 0 Z " fill="#302F2E" transform="translate(238,192)"/>
<path d="M0 0 C1.46726798 3.81489674 0.43336419 6.29011622 -1 10 C-1.99 10 -2.98 10 -4 10 C-4.33 7.03 -4.66 4.06 -5 1 C-4.34 1 -3.68 1 -3 1 C-2.67 2.32 -2.34 3.64 -2 5 C-1.34 3.35 -0.68 1.7 0 0 Z " fill="#696A6D" transform="translate(163,112)"/>
<path d="M0 0 C0.66 0.66 1.32 1.32 2 2 C1.625 4.625 1.625 4.625 1 7 C-2 7 -2 7 -5 5 C-3.35 3.35 -1.7 1.7 0 0 Z " fill="#B1B3B2" transform="translate(220,111)"/>
<path d="M0 0 C1.37432457 3.81756824 0.67975039 7.07255329 0 11 C-0.99 11 -1.98 11 -3 11 C-2.8864371 9.35333797 -2.75882619 7.70763918 -2.625 6.0625 C-2.55539063 5.14597656 -2.48578125 4.22945313 -2.4140625 3.28515625 C-2.27742187 2.53105469 -2.14078125 1.77695313 -2 1 C-1.34 0.67 -0.68 0.34 0 0 Z " fill="#BBBBBB" transform="translate(194,109)"/>
<path d="M0 0 C2.81940879 2.54656278 4.56252014 4.1720512 5 8 C5.03888349 10.33300933 5.0448635 12.66709801 5 15 C3.2224249 11.71832289 2.0018558 8.3205629 0.78125 4.8046875 C0.04448177 2.79914987 0.04448177 2.79914987 -2 1 C-1.34 0.67 -0.68 0.34 0 0 Z " fill="#070809" transform="translate(233,99)"/>
<path d="M0 0 C0.99 0.33 1.98 0.66 3 1 C1.84414715 4.91211733 0.64465038 7.8745041 -2 11 C-3.14947895 7.44706507 -3.0868937 6.20023331 -1.5625 2.6875 C-1.046875 1.800625 -0.53125 0.91375 0 0 Z " fill="#121213" transform="translate(37,75)"/>
<path d="M0 0 C0 0.66 0 1.32 0 2 C-4.79300133 3.39151652 -9.15135782 2.68662689 -14 2 C-9.92616313 -2.07383687 -5.32200558 -0.93917746 0 0 Z " fill="#2C2F32" transform="translate(161,20)"/>
<path d="M0 0 C0.66 0.33 1.32 0.66 2 1 C0.49776416 5.20626034 -2.28550034 6.73900021 -6 9 C-6.66 8.67 -7.32 8.34 -8 8 C-5.36 5.36 -2.72 2.72 0 0 Z " fill="#A6A7A7" transform="translate(101,134)"/>
<path d="M0 0 C0.99 0.33 1.98 0.66 3 1 C2.67 2.98 2.34 4.96 2 7 C1.01 7.33 0.02 7.66 -1 8 C-1.66 7.67 -2.32 7.34 -3 7 C-1.125 1.125 -1.125 1.125 0 0 Z " fill="#1C1D21" transform="translate(140,116)"/>
<path d="M0 0 C1.76462683 3.08809695 2 4.23312136 2 8 C4.97 8.495 4.97 8.495 8 9 C7.34 9.66 6.68 10.32 6 11 C3.4375 10.75 3.4375 10.75 1 10 C-0.60725635 6.78548731 -0.05748185 3.56387464 0 0 Z " fill="#A2A3A4" transform="translate(227,108)"/>
<path d="M0 0 C0.66 0.33 1.32 0.66 2 1 C1.5359375 2.1446875 1.5359375 2.1446875 1.0625 3.3125 C0.32106407 5.18789677 -0.36228217 7.08684652 -1 9 C-2.62332967 10.38576923 -4.28724465 11.72641268 -6 13 C-5.51675181 7.84535266 -2.81389239 4.18449681 0 0 Z " fill="#C1C4C4" transform="translate(48,72)"/>
<path d="M0 0 C1.32 0.33 2.64 0.66 4 1 C4.33 2.32 4.66 3.64 5 5 C3.68 5.33 2.36 5.66 1 6 C1.66 4.68 2.32 3.36 3 2 C2.01 2.495 2.01 2.495 1 3 C1 4.65 1 6.3 1 8 C0.34 8 -0.32 8 -1 8 C-1.625 5.6875 -1.625 5.6875 -2 3 C-1.34 2.01 -0.68 1.02 0 0 Z " fill="#BFC1C4" transform="translate(164,61)"/>
<path d="M0 0 C0.99 0.33 1.98 0.66 3 1 C-0.55991828 3.96659857 -4.65222543 6.381348 -9 8 C-9.66 7.67 -10.32 7.34 -11 7 C-9.23754778 5.8000962 -7.46473019 4.61540483 -5.6875 3.4375 C-4.70136719 2.77621094 -3.71523437 2.11492188 -2.69921875 1.43359375 C-1.80847656 0.96050781 -0.91773437 0.48742187 0 0 Z " fill="#1A1C20" transform="translate(86,29)"/>
<path d="M0 0 C1.65 0 3.3 0 5 0 C5.33 1.98 5.66 3.96 6 6 C5.01 6.495 5.01 6.495 4 7 C2 5.1875 2 5.1875 0 3 C0 2.01 0 1.02 0 0 Z " fill="#AFAFAD" transform="translate(104,164)"/>
<path d="M0 0 C0 3.93169105 -1.39419615 5.16427228 -4 8 C-4.66 8 -5.32 8 -6 8 C-6 8.99 -6 9.98 -6 11 C-6.99 11 -7.98 11 -9 11 C-8.46324097 7.14896699 -6.88399077 5.68202413 -3.9375 3.25 C-3.20402344 2.63640625 -2.47054687 2.0228125 -1.71484375 1.390625 C-1.14894531 0.93171875 -0.58304688 0.4728125 0 0 Z " fill="#151618" transform="translate(95,131)"/>
<path d="M0 0 C1.32 0.66 2.64 1.32 4 2 C4 3.98 4 5.96 4 8 C2.68 7.67 1.36 7.34 0 7 C-0.38133299 5.0085944 -0.71325582 3.00720923 -1 1 C-0.67 0.67 -0.34 0.34 0 0 Z " fill="#282B30" transform="translate(106,81)"/>
<path d="M0 0 C2.52588702 2.36292656 3.88820837 3.66462511 5 7 C4.67 7.66 4.34 8.32 4 9 C2 9 2 9 0.3125 7.875 C-1 6 -1 6 -0.6875 2.8125 C-0.460625 1.884375 -0.23375 0.95625 0 0 Z " fill="#8B8C8D" transform="translate(237,75)"/>
<path d="M0 0 C0.66 0.66 1.32 1.32 2 2 C1.67 2.99 1.34 3.98 1 5 C3.97 5 6.94 5 10 5 C9.67 5.66 9.34 6.32 9 7 C4.71 7 0.42 7 -4 7 C-3.01 5.35 -2.02 3.7 -1 2 C-0.67 1.34 -0.34 0.68 0 0 Z " fill="#E3E8EB" transform="translate(132,8)"/>
<path d="M0 0 C0 0.66 0 1.32 0 2 C-4.3164922 2.76173392 -7.74433453 3.16063604 -12 2 C-12 1.34 -12 0.68 -12 0 C-7.74433453 -1.16063604 -4.3164922 -0.76173392 0 0 Z " fill="#181617" transform="translate(133,239)"/>
<path d="M0 0 C0.99 0 1.98 0 3 0 C1.50902342 3.7952131 -0.75700849 5.61042731 -4 8 C-4.33 6.35 -4.66 4.7 -5 3 C-3.35 2.67 -1.7 2.34 0 2 C0 1.34 0 0.68 0 0 Z " fill="#1B1B1D" transform="translate(101,130)"/>
<path d="M0 0 C0.99 0.33 1.98 0.66 3 1 C3 3.64 3 6.28 3 9 C2.67 9 2.34 9 2 9 C1.67 7.35 1.34 5.7 1 4 C0.67 6.64 0.34 9.28 0 12 C-0.33 12 -0.66 12 -1 12 C-1.02687279 10.18757948 -1.04633715 8.37504767 -1.0625 6.5625 C-1.07410156 5.55316406 -1.08570313 4.54382813 -1.09765625 3.50390625 C-1 1 -1 1 0 0 Z " fill="#0C0D11" transform="translate(185,110)"/>
<path d="M0 0 C-0.8125 2.9375 -0.8125 2.9375 -2 6 C-2.99 6.33 -3.98 6.66 -5 7 C-5 6.01 -5 5.02 -5 4 C-5.66 3.67 -6.32 3.34 -7 3 C-5.40442685 -0.19114631 -3.35905282 0 0 0 Z " fill="#B0ADAB" transform="translate(204,232)"/>
<path d="M0 0 C-0.99 0.495 -0.99 0.495 -2 1 C-2 1.99 -2 2.98 -2 4 C-3.98 4.33 -5.96 4.66 -8 5 C-8.33 4.01 -8.66 3.02 -9 2 C-5.5647952 -0.29013653 -4.014669 -0.17842973 0 0 Z " fill="#211F20" transform="translate(204,225)"/>
<path d="M0 0 C0.98726527 2.66561622 1.0275526 3.90126985 0.25 6.6875 C-1 9 -1 9 -4 10 C-3.43454163 6.04179141 -2.19097652 3.3340947 0 0 Z " fill="#414040" transform="translate(237,185)"/>
<path d="M0 0 C0 2.31 0 4.62 0 7 C-0.99 7.33 -1.98 7.66 -3 8 C-3 7.01 -3 6.02 -3 5 C-3.66 4.67 -4.32 4.34 -5 4 C-4.67 3.01 -4.34 2.02 -4 1 C-2 0 -2 0 0 0 Z " fill="#232327" transform="translate(71,179)"/>
<path d="M0 0 C2.125 0.375 2.125 0.375 4 1 C2.515 2.485 2.515 2.485 1 4 C1.33 4.66 1.66 5.32 2 6 C2.66 5.67 3.32 5.34 4 5 C3.67 5.99 3.34 6.98 3 8 C1.68 7.67 0.36 7.34 -1 7 C-1.625 4.625 -1.625 4.625 -2 2 C-1.34 1.34 -0.68 0.68 0 0 Z " fill="#5B5B5B" transform="translate(201,143)"/>
<path d="M0 0 C4.2742558 1.5830577 6.26531794 4.50568404 9 8 C6 8 6 8 4.39453125 6.7578125 C3.87246094 6.21898437 3.35039063 5.68015625 2.8125 5.125 C2.28269531 4.59132812 1.75289062 4.05765625 1.20703125 3.5078125 C0 2 0 2 0 0 Z " fill="#090807" transform="translate(58,205)"/>
<path d="M0 0 C0.33 0.66 0.66 1.32 1 2 C-0.39919021 5.10931158 -1.48027305 6.69349437 -4.4375 8.4375 C-7 9 -7 9 -9.3125 8.125 C-9.869375 7.75375 -10.42625 7.3825 -11 7 C-9.9275 6.773125 -8.855 6.54625 -7.75 6.3125 C-3.62781299 4.86973455 -2.35585477 3.58089925 0 0 Z " fill="#0A0A0B" transform="translate(180,133)"/>
<path d="M0 0 C0.99 0.33 1.98 0.66 3 1 C2.67 3.97 2.34 6.94 2 10 C0 9 0 9 -1.25 6.125 C-1.4975 5.09375 -1.745 4.0625 -2 3 C-1.34 2.01 -0.68 1.02 0 0 Z " fill="#252529" transform="translate(123,119)"/>
<path d="M0 0 C0.33 0 0.66 0 1 0 C1 2.97 1 5.94 1 9 C1.66 9 2.32 9 3 9 C2.67 9.99 2.34 10.98 2 12 C0.35 11.67 -1.3 11.34 -3 11 C-2.67 10.01 -2.34 9.02 -2 8 C-2 8.66 -2 9.32 -2 10 C-1.34 10 -0.68 10 0 10 C0 6.7 0 3.4 0 0 Z " fill="#0C0E10" transform="translate(198,110)"/>
<path d="M0 0 C0.66 0 1.32 0 2 0 C2 2.64 2 5.28 2 8 C0.68 7.67 -0.64 7.34 -2 7 C-1.125 2.25 -1.125 2.25 0 0 Z " fill="#BABABA" transform="translate(206,109)"/>
<path d="M0 0 C2.375 -0.1875 2.375 -0.1875 5 0 C5.66 0.99 6.32 1.98 7 3 C3.25 6 3.25 6 1 6 C0.67 4.02 0.34 2.04 0 0 Z " fill="#D0D5D8" transform="translate(64,34)"/>
<path d="M0 0 C1.98 0 3.96 0 6 0 C6.33 0.66 6.66 1.32 7 2 C6.67 2.66 6.34 3.32 6 4 C4.02 4 2.04 4 0 4 C0 2.68 0 1.36 0 0 Z " fill="#D8DDDF" transform="translate(171,16)"/>
<path d="M0 0 C1.32 0.66 2.64 1.32 4 2 C-0.455 3.485 -0.455 3.485 -5 5 C-5.66 4.34 -6.32 3.68 -7 3 C-3.75 1.375 -3.75 1.375 0 0 Z " fill="#7E7E7C" transform="translate(189,234)"/>
<path d="M0 0 C0.99 0.33 1.98 0.66 3 1 C4.125 5.75 4.125 5.75 3 8 C1.68 7.67 0.36 7.34 -1 7 C-0.67 4.69 -0.34 2.38 0 0 Z " fill="#ACACAB" transform="translate(241,163)"/>
<path d="M0 0 C0.99 0.33 1.98 0.66 3 1 C3.6875 3.0625 3.6875 3.0625 4 5 C2.02 5.99 0.04 6.98 -2 8 C-1.34 5.36 -0.68 2.72 0 0 Z " fill="#AFB0B2" transform="translate(163,116)"/>
<path d="M0 0 C0.99 0 1.98 0 3 0 C4.42944945 2.35438733 5.08661261 3.48032433 4.625 6.25 C4.41875 6.8275 4.2125 7.405 4 8 C0 3.375 0 3.375 0 0 Z " fill="#191917" transform="translate(38,177)"/>
<path d="M0 0 C0.66 0 1.32 0 2 0 C3.06671952 3.20015856 2.94845472 4.88544294 2.5625 8.1875 C2.46066406 9.08855469 2.35882813 9.98960937 2.25390625 10.91796875 C2.17011719 11.60503906 2.08632812 12.29210937 2 13 C1.67 13 1.34 13 1 13 C-0.10228696 8.59085217 -0.07654536 4.51617599 0 0 Z " fill="#A3A3A5" transform="translate(69,156)"/>
<path d="M0 0 C0.33 0 0.66 0 1 0 C1 2.97 1 5.94 1 9 C-0.32 9.33 -1.64 9.66 -3 10 C-2.01 6.7 -1.02 3.4 0 0 Z " fill="#B2B2B3" transform="translate(137,125)"/>
<path d="M0 0 C0 0.66 0 1.32 0 2 C-1.0725 2.598125 -2.145 3.19625 -3.25 3.8125 C-5.98958993 5.37401069 -8.53256878 7.02605503 -11 9 C-11 8.01 -11 7.02 -11 6 C-9.1015625 4.39453125 -9.1015625 4.39453125 -6.625 2.8125 C-5.81289062 2.28269531 -5.00078125 1.75289062 -4.1640625 1.20703125 C-2 0 -2 0 0 0 Z " fill="#393B3E" transform="translate(82,36)"/>
<path d="M0 0 C0.94875 0.350625 1.8975 0.70125 2.875 1.0625 C2.545 2.0525 2.215 3.0425 1.875 4.0625 C-0.14545442 3.46066251 -2.14611039 2.78943904 -4.125 2.0625 C-4.455 1.4025 -4.785 0.7425 -5.125 0.0625 C-3.125 -0.9375 -3.125 -0.9375 0 0 Z " fill="#0E0C0D" transform="translate(98.125,229.9375)"/>
<path d="M0 0 C2.31 0.33 4.62 0.66 7 1 C6.67 2.65 6.34 4.3 6 6 C3.5625 5.25 3.5625 5.25 1 4 C0.1875 1.875 0.1875 1.875 0 0 Z " fill="#262123" transform="translate(88,227)"/>
<path d="M0 0 C1.98 0.495 1.98 0.495 4 1 C3.67 2.32 3.34 3.64 3 5 C1.68 4.67 0.36 4.34 -1 4 C-0.67 2.68 -0.34 1.36 0 0 Z " fill="#B7B7B6" transform="translate(209,143)"/>
<path d="M0 0 C0.66 1.32 1.32 2.64 2 4 C0.68 4.99 -0.64 5.98 -2 7 C-2 6.34 -2 5.68 -2 5 C-2.66 4.67 -3.32 4.34 -4 4 C-2.68 2.68 -1.36 1.36 0 0 Z " fill="#B1B2B2" transform="translate(93,128)"/>
<path d="M0 0 C1.37432457 3.81756824 0.67975039 7.07255329 0 11 C-0.99 11 -1.98 11 -3 11 C-2.32829194 7.1936543 -1.27253436 3.64793184 0 0 Z " fill="#151419" transform="translate(107,108)"/>
<path d="M0 0 C0 2.64 0 5.28 0 8 C-2 7 -2 7 -3.125 3.9375 C-3.41375 2.968125 -3.7025 1.99875 -4 1 C-2 0 -2 0 0 0 Z " fill="#2A2A2C" transform="translate(69,96)"/>
<path d="M0 0 C1.875 0.25 1.875 0.25 4 1 C5.25 3.0625 5.25 3.0625 6 5 C5.01 6.485 5.01 6.485 4 8 C0 2.25 0 2.25 0 0 Z " fill="#666769" transform="translate(232,70)"/>
<path d="M0 0 C0.66 1.32 1.32 2.64 2 4 C0.35 5.65 -1.3 7.3 -3 9 C-3.33 8.01 -3.66 7.02 -4 6 C-2.0625 2.8125 -2.0625 2.8125 0 0 Z " fill="#25282A" transform="translate(53,59)"/>
<path d="M0 0 C0.66 0.33 1.32 0.66 2 1 C0.50902342 4.7952131 -1.75700849 6.61042731 -5 9 C-4.67 7.35 -4.34 5.7 -4 4 C-2.68 3.67 -1.36 3.34 0 3 C0 2.01 0 1.02 0 0 Z " fill="#C8CCCF" transform="translate(53,48)"/>
<path d="M0 0 C1.32 1.32 2.64 2.64 4 4 C1.36 4.33 -1.28 4.66 -4 5 C-2.68 3.35 -1.36 1.7 0 0 Z " fill="#CBD0D3" transform="translate(76,42)"/>
<path d="M0 0 C2.97 0.495 2.97 0.495 6 1 C5.67 1.99 5.34 2.98 5 4 C3.0625 4.8125 3.0625 4.8125 1 5 C0.34 4.34 -0.32 3.68 -1 3 C-0.67 2.01 -0.34 1.02 0 0 Z " fill="#A7A6A3" transform="translate(116,243)"/>
<path d="M0 0 C5.75 1.75 5.75 1.75 8 4 C7.34 4 6.68 4 6 4 C6 4.66 6 5.32 6 6 C3.37812506 4.95125002 2.20628639 4.35068687 0.75 1.875 C0.5025 1.25625 0.255 0.6375 0 0 Z " fill="#A6A4A3" transform="translate(92,234)"/>
<path d="M0 0 C1.875 0.3125 1.875 0.3125 4 1 C4.66 1.99 5.32 2.98 6 4 C4.35 4.33 2.7 4.66 1 5 C0.67 3.35 0.34 1.7 0 0 Z " fill="#ABABA8" transform="translate(68,218)"/>
<path d="M0 0 C0.33 0.99 0.66 1.98 1 3 C1.99 2.67 2.98 2.34 4 2 C4.33 3.65 4.66 5.3 5 7 C3.68 6.67 2.36 6.34 1 6 C0.67 4.02 0.34 2.04 0 0 Z " fill="#121214" transform="translate(67,184)"/>
<path d="M0 0 C1.32 0.66 2.64 1.32 4 2 C4 2.66 4 3.32 4 4 C5.32 4.33 6.64 4.66 8 5 C5.03 5 2.06 5 -1 5 C-0.67 3.35 -0.34 1.7 0 0 Z " fill="#1C1B20" transform="translate(165,137)"/>
<path d="M0 0 C1.32 1.32 2.64 2.64 4 4 C0.25 6 0.25 6 -2 6 C-1.125 1.125 -1.125 1.125 0 0 Z " fill="#B1B3B3" transform="translate(223,116)"/>
<path d="M0 0 C0.66 0 1.32 0 2 0 C3.61949011 2.57213134 4.04408751 3.67669159 3.625 6.75 C3.41875 7.4925 3.2125 8.235 3 9 C1.10786631 6.61426621 -0.02391783 4.92824652 -1 2 C-0.67 1.34 -0.34 0.68 0 0 Z " fill="#343435" transform="translate(33,84)"/>
<path d="M0 0 C1.32 0 2.64 0 4 0 C2.73058503 3.91402949 1.48832306 5.79072873 -2 8 C-1.34 5.36 -0.68 2.72 0 0 Z " fill="#C0C5C8" transform="translate(44,57)"/>
<path d="M0 0 C1.98 0 3.96 0 6 0 C6 3.57575896 4.91159393 5.05295935 3 8 C2.67 7.01 2.34 6.02 2 5 C3 3 3 3 4 2 C2.68 1.67 1.36 1.34 0 1 C0 0.67 0 0.34 0 0 Z " fill="#C9CED1" transform="translate(152,57)"/>
<path d="M0 0 C0.99 0.66 1.98 1.32 3 2 C2.67 2.99 2.34 3.98 2 5 C-2 5 -2 5 -4 4 C-3.67 3.01 -3.34 2.02 -3 1 C-2.01 0.67 -1.02 0.34 0 0 Z " fill="#292C33" transform="translate(197,31)"/>
<path d="M0 0 C0.94875 0.04125 1.8975 0.0825 2.875 0.125 C2.545 1.115 2.215 2.105 1.875 3.125 C-0.6875 4.3125 -0.6875 4.3125 -3.125 5.125 C-3.125 4.465 -3.125 3.805 -3.125 3.125 C-3.785 2.795 -4.445 2.465 -5.125 2.125 C-3.125 0.125 -3.125 0.125 0 0 Z " fill="#ABABAB" transform="translate(198.125,120.875)"/>
<path d="M0 0 C0.66 0 1.32 0 2 0 C2.33 2.97 2.66 5.94 3 9 C2.67 8.34 2.34 7.68 2 7 C1.34 7 0.68 7 0 7 C-0.38133299 5.0085944 -0.71325582 3.00720923 -1 1 C-0.67 0.67 -0.34 0.34 0 0 Z " fill="#A9AAAC" transform="translate(162,105)"/>
<path d="M0 0 C0.66 0 1.32 0 2 0 C1.25 4.75 1.25 4.75 -1 7 C-1.66 6.67 -2.32 6.34 -3 6 C-1.125 1.125 -1.125 1.125 0 0 Z " fill="#5D5F61" transform="translate(48,66)"/>
<path d="M0 0 C0.66 0.33 1.32 0.66 2 1 C0.35 2.65 -1.3 4.3 -3 6 C-4.32 5.34 -5.64 4.68 -7 4 C-1.7265625 0.77734375 -1.7265625 0.77734375 0 0 Z " fill="#DADEE1" transform="translate(90,32)"/>
<path d="M0 0 C6.52307692 0.61538462 6.52307692 0.61538462 8.9375 2.5625 C9.288125 3.036875 9.63875 3.51125 10 4 C8.1875 4.6875 8.1875 4.6875 6 5 C4.4375 3.6875 4.4375 3.6875 3 2 C2.01 1.34 1.02 0.68 0 0 Z " fill="#D1D5D8" transform="translate(179,30)"/>
<path d="M0 0 C0.33 1.32 0.66 2.64 1 4 C-0.65 4.33 -2.3 4.66 -4 5 C-4.66 4.01 -5.32 3.02 -6 2 C-2.25 0 -2.25 0 0 0 Z " fill="#100E0F" transform="translate(188,231)"/>
<path d="M0 0 C0.99 0.33 1.98 0.66 3 1 C2.34 1 1.68 1 1 1 C1.95865509 3.33075929 1.95865509 3.33075929 5 5 C3.02 5 1.04 5 -1 5 C-1 1 -1 1 0 0 Z " fill="#131315" transform="translate(57,150)"/>
<path d="M0 0 C0.66 0 1.32 0 2 0 C2 2.64 2 5.28 2 8 C1.34 8 0.68 8 0 8 C-0.98120464 4.94736336 -0.98120464 3.05263664 0 0 Z " fill="#212224" transform="translate(196,112)"/>
<path d="M0 0 C0.33 0 0.66 0 1 0 C0.67 2.31 0.34 4.62 0 7 C-0.66 7 -1.32 7 -2 7 C-2.33 7.66 -2.66 8.32 -3 9 C-2.5020163 5.26512223 -2.12508244 3.18762365 0 0 Z " fill="#909191" transform="translate(38,81)"/>
<path d="M0 0 C-1.25 1.5625 -1.25 1.5625 -3 3 C-5.1875 2.6875 -5.1875 2.6875 -7 2 C-7 2.66 -7 3.32 -7 4 C-7.66 3.67 -8.32 3.34 -9 3 C-6.07868595 -0.19953443 -4.37453972 -1.45817991 0 0 Z " fill="#D0D3D6" transform="translate(67,46)"/>
<path d="M0 0 C0.66 0.33 1.32 0.66 2 1 C-2.75 5.875 -2.75 5.875 -5 7 C-4.60196439 4.11424181 -4.20990931 3.17810487 -1.9375 1.25 C-1.298125 0.8375 -0.65875 0.425 0 0 Z " fill="#8F8D8C" transform="translate(212,221)"/>
<path d="M0 0 C0.33 1.32 0.66 2.64 1 4 C1.66 4.33 2.32 4.66 3 5 C1.68 6.65 0.36 8.3 -1 10 C-0.67 6.7 -0.34 3.4 0 0 Z " fill="#131315" transform="translate(65,98)"/>
<path d="M0 0 C1.98 0 3.96 0 6 0 C4.515 1.98 4.515 1.98 3 4 C1.68 3.67 0.36 3.34 -1 3 C-0.67 2.01 -0.34 1.02 0 0 Z " fill="#D0D4D7" transform="translate(59,40)"/>
<path d="M0 0 C0.33 0.66 0.66 1.32 1 2 C3.01669827 3.13350534 3.01669827 3.13350534 5 4 C4.01 5.485 4.01 5.485 3 7 C1.68 5.35 0.36 3.7 -1 2 C-0.67 1.34 -0.34 0.68 0 0 Z " fill="#C0C3C8" transform="translate(207,34)"/>
<path d="M0 0 C-2.62198774 2.15377564 -4.64404172 3.40072174 -8 4 C-7 1 -7 1 -5.125 -0.25 C-3 -1 -3 -1 0 0 Z " fill="#66686C" transform="translate(90,32)"/>
</svg>
